<?xml version="1.0" encoding="UTF-8"?>
<svg viewBox="0 0 1276.2 847" xmlns="http://www.w3.org/2000/svg">
<style type="text/css">.st0{fill:#FCDD09;}
	.st1{fill:#0072BC;}
	.st2{fill:#DA121A;}
	.st3{fill:#FCDD09;stroke:#000000;}
	.st4{fill:none;stroke:#000000;}
	.st5{fill:#FFFFFF;stroke:#000000;}
	.st6{fill:#DA121A;stroke:#000000;}
	.st7{fill:#078930;stroke:#000000;}</style>
<rect class="st0" width="1276.2" height="847"/>
<rect class="st1" width="425.4" height="847"/>
<polygon class="st2" points="1276.2 188.3 1276.2 94.2 426 94.2 426 0 331.8 0 331.8 847 426 847 426 752.8 1276.2 752.8 1276.2 658.7 426 658.7 426 564.7 1276.2 564.7 1276.2 470.6 426 470.6 426 376.4 1276.2 376.4 1276.2 282.3 426 282.3 426 188.3"/>
<path class="st3" d="m194.2 772.3s-38.6 85.3-55.8 44.4c0 0 4.9 1.9 8.7-1.9 3.4-3.4 3-6.6-0.9-11.3-4.2-5.1-16.3-2.8-18.7 3.2-5.5 14 7.6 32.5 19.5 31.6 31.4-2.1 34.8-35.7 55.6-64.3 1.2-1.9-8.4-1.7-8.4-1.7z"/>
<path class="st3" d="m194.9 674.2s-38.6-85.3-55.8-44.4c0 0 4.9-1.9 8.7 1.9 3.4 3.4 3 6.6-0.9 11.3-4.2 5.1-16.3 2.8-18.7-3.2-5.5-14 7.6-32.3 19.5-31.6 31.4 2.1 34.8 35.7 55.6 64.3 1.1 1.7-8.4 1.7-8.4 1.7z"/>
<path class="st3" d="m324.4 694.2c-5.5 10.6-50.9 28-50.9 28s44.2 16.8 50.3 28l0.6 16.4c-22.5-30.6-45-33.5-62.4-34.4-12.3-0.6-11.2 6.6-8.9 9.5 20.2 25.7-5.9 33.1-9.8 54.4-0.2 1.1-3.2-3.6-4.2-9.8-0.6-4 0.6-10 0.6-10-9.1 14.9-20.4 3-27.4 18 0 0-1.5-2.3-2.3-3-2.1-1.9-8.5-0.9-9.5-17.8 0-0.6-7.4 1.3-7.4 1.3 4.2-14 39.9-29.5 30.6-38.8-10.6-10.2-11.3 21.9-27.8 24.2-0.9 0.2 2.5-9.3 2.5-9.3-7.8 0.4-11.2 9.3-11.9 14.6l-1.9-4.9c-7.4-4.2 1.9-25.1-1.5-28.7-2.6-2.8-11.5 8.7-15.3 10.6s-25.3 1.9-14.7 14.9c0.8 1.1-2.1-5.9 2.8-6.8 5.5-0.9 5.3 5.5 5.3 6 0 2.6-4.9 9.3-12.7 5.5-0.4-0.2-14.7-10.6 4-25.3 0 0-11.5 7-23.4-5.5-2.6-2.6-6-6-10.2-8.7 4.2-2.6 7.2-5.7 9.8-8.5 12.1-12.5 23.4-5.7 23.4-5.7-18.7-14.7-4.5-25.1-4-25.3 7.6-3.8 12.5 2.8 12.7 5.5 0 0.6 0.2 7-5.3 6-4.9-0.9-2.1-7.8-2.8-6.8-10.6 13 11 13 14.9 14.9 3.8 1.9 12.7 13.4 15.3 10.6 3.4-3.6-5.9-24.6 1.5-28.7l1.7-4.9c0.9 5.3 4.3 14.2 12.1 14.6 0 0-3.4-9.5-2.5-9.3 16.4 2.1 17.4 34.4 27.8 24 9.3-9.1-26.5-24.6-30.6-38.6 0 0 7.4 1.9 7.4 1.3 0.9-17 7.4-16.1 9.3-18 0.8-0.8 2.1-3 2.1-3 7 14.9 18.5 2.8 27.4 17.8 0 0-1.3-6-0.8-10 0.9-6.2 4-10.8 4.2-9.8 4.2 21.4 30.2 28.5 10 54.3-2.3 2.8-3.4 10.2 9.1 9.5 17.4-0.9 39.9-4 62.2-34.6l0.6 16.3z"/>
<path class="st4" d="m184.5 760.4c2.5-20.8 20-27.6 19.7-37.8-0.4-10.2-18.1-20.8-20.2-38.2m25.1 106.3c-13.8-28.7 30.6-38.4 29.3-68.1-1.3-28.2-43.5-40.6-29.5-68.4m64.1 68h-154.3"/>
<path class="st3" d="m259 563.2c-4.9-13.4-19.1-17.2-27.2-17.4-9.1-0.4-23.3 12.1-32 17.4-7.8 4.7-21.7-1.5-24-7-4.9-12.1 2.8-14.4 6.6-13.8 0 0-4.5 8.7 3 7.6 4.7-0.8 6-7.8 5.3-10.6-1.5-5.7-9.6-5.1-12.9-4.2-10.4 3-8.7 17.6-5.1 23.1 5.1 8.3 18 9.5 26.1 8.3 12.5-1.9 22.5-14.6 29.9-14.2 1.9 0 4 6.8 2.1 7.2-12.5 2.3-10.8 11.2-10.8 11.2v0.2s-1.7 8.7 10.8 11.2c1.9 0.4-0.6 7.4-2.5 7.4-7.4 0.4-17-12.7-29.5-14.4-8.1-1.1-21 0-26.1 8.3-3.4 5.5-5.1 20 5.1 23.1 3.2 0.9 11.2 1.5 12.9-4.2 0.8-2.8-0.4-10-5.3-10.6-7.6-1.1-3 7.6-3 7.6-3.8 0.8-11.5-1.7-6.6-13.8 2.3-5.5 16.3-11.7 24-7 8.7 5.5 22.9 17.8 32 17.4 8.1-0.4 22.3-4 27.2-17.4v-15.6 0.2z"/>
<path class="st3" d="m321.6 554.3c-1.7 8.9-24.2 16.6-24.2 16.6s22.1 11.5 25.1 20.8l-0.6 10.8c-7.2-24.4-34.6-26.3-34.6-26.3 5.9 8.3 11 19.7-3 31 0 0 4.2-10.6 2.1-13 0 0-1.9 6.6-9.8 12.7-3.2 2.5-12.1 2.1-16.1 4.5l3.4-10.8c-4.2 8.7-15.9 9.8-15.9 9.8-0.8-3-0.4-10.2 3.2-15.7 6.8-10.4 5.3-18 5.3-18-5.9 13-29.1 14.2-33.5 11-0.6-0.4 5.1-6 5.1-6-2.1 0.4-7.9-3.8-7.8-4.9 0.2-1.7 4-5.3 4.7-6.4 0 0-4.3-3.6-4.5-5.3-0.2-1.1 5.7-5.3 7.8-4.9 0 0-5.9-5.7-5.1-6 4.3-3.2 27.6-2.1 33.5 11 0 0 1.7-7.4-5.1-18-3.6-5.5-4-12.9-3.4-15.7 0 0 11.9 1.1 15.9 9.8l-3.4-10.8c4 2.3 12.9 1.9 16.1 4.5 7.9 6 9.8 12.7 9.8 12.7 2.1-2.5-2.1-13-2.1-13 14 11.3 8.9 22.7 3 31 0 0 27.6-1.9 34.6-26.3l-0.5 14.9z"/>
<path class="st3" d="m191.3 573.8c-7.6 0.2-18 5.5-27.4 4.2-6.8-0.9-18.9-9.1-18.9-9.1s12.3-6.4 18.5-7.8c10-2.3 20 6.4 27.6 6.6 1.6 0 1.7 6.1 0.2 6.1z"/>
<path class="st3" d="m191.5 558.7c4.2-0.9 3.4 12.1 3.4 12.1 0 1.7 0.6 11.3-3.4 12.1-4.5-0.6-3.2-12.1-3.2-12.1s-0.6-12.3 3.2-12.1z"/>
<path class="st3" d="m219.7 570.4 78.3 0.6m-34.4 31 11.2-31.2m-0.1 0-11-30.6"/>
<path class="st3" d="m194.9 469.8s-38.6 85.3-55.8 44.4c0 0 4.9 1.9 8.7-1.9 3.4-3.4 3-6.6-0.9-11.3-4.2-5.1-16.3-2.8-18.7 3.2-5.5 14 7.6 32.5 19.5 31.6 31.4-2.1 34.8-35.7 55.6-64.3 1.1-1.9-8.4-1.7-8.4-1.7z"/>
<path class="st3" d="m195.5 371.7s-38.6-85.3-55.8-44.4c0 0 4.9-1.9 8.7 1.9 3.4 3.4 3 6.6-0.9 11.3-4.2 5.1-16.3 2.8-18.7-3.2-5.5-14 7.6-32.3 19.5-31.6 31.4 2.1 34.8 35.7 55.6 64.3 1 1.9-8.4 1.7-8.4 1.7z"/>
<path class="st3" d="m325 391.7c-5.5 10.6-50.9 28-50.9 28s44.2 16.8 50.3 28l0.6 16.4c-22.5-30.6-45-33.5-62.4-34.4-12.3-0.6-11.2 6.6-8.9 9.5 20.2 25.7-5.9 33.1-9.8 54.4-0.2 1.1-3.2-3.6-4.2-9.8-0.6-4 0.6-10 0.6-10-9.1 14.9-20.4 3-27.4 18 0 0-1.5-2.3-2.3-3-2.1-1.9-8.5-0.9-9.5-17.8 0-0.6-7.4 1.3-7.4 1.3 4.2-14 39.9-29.5 30.6-38.8-10.6-10.2-11.3 21.9-27.8 24.2-0.9 0.2 2.5-9.3 2.5-9.3-7.8 0.4-11.2 9.3-11.9 14.6l-1.9-4.9c-7.4-4.2 1.9-25.1-1.5-28.7-2.6-2.8-11.5 8.7-15.3 10.6s-25.3 1.9-14.7 14.9c0.8 1.1-2.1-5.9 2.8-6.8 5.5-0.9 5.3 5.5 5.3 6 0 2.6-4.9 9.3-12.7 5.5-0.4-0.2-14.7-10.6 4-25.5 0 0-11.5 7-23.4-5.5-2.6-2.6-6-6-10.2-8.7 4.2-2.6 7.2-5.7 9.8-8.5 12.1-12.7 23.4-5.7 23.4-5.7-18.7-14.7-4.5-25.1-4-25.3 7.6-3.8 12.5 2.8 12.7 5.5 0 0.6 0.2 7-5.3 6-4.9-0.9-2.1-7.8-2.8-6.8-10.6 13 11 13 14.9 14.9 3.8 1.9 12.7 13.4 15.3 10.6 3.4-3.6-6-24.6 1.5-28.7l1.7-4.9c0.9 5.3 4.3 14.2 12.1 14.6 0 0-3.4-9.5-2.5-9.3 16.4 2.1 17.4 34.4 27.8 24 9.3-9.1-26.5-24.6-30.6-38.6 0 0 7.4 1.9 7.4 1.3 0.9-17 7.4-16.1 9.3-18 0.8-0.8 2.1-3 2.1-3 7 14.9 18.5 2.8 27.4 17.8 0 0-1.3-6-0.8-10 0.9-6.2 4-10.8 4.2-9.8 4.2 21.4 30.2 28.5 10 54.3-2.3 2.8-3.4 10 9.1 9.5 17.4-0.9 39.9-4 62.2-34.6l0.6 16.5z"/>
<path class="st4" d="m185.3 457.9c2.5-20.8 20-27.6 19.7-37.8-0.4-10.2-18.1-20.8-20.2-38.2m24.9 106.3c-13.8-28.7 30.6-38.4 29.3-68.1-1.3-28.2-43.5-40.6-29.5-68.4m64.1 68.2h-154.3"/>
<path class="st3" d="m193.6 170.5s-38.6 85.3-55.8 44.4c0 0 4.9 1.9 8.7-1.9 3.4-3.4 3-6.6-0.9-11.3-4.2-5.1-16.3-2.8-18.7 3.2-5.5 14 7.6 32.5 19.5 31.6 31.4-2.1 34.8-35.7 55.6-64.3 1.1-1.9-8.4-1.7-8.4-1.7z"/>
<path class="st3" d="m194.2 72.4s-38.6-85.3-55.8-44.4c0 0 4.9-1.9 8.7 1.9 3.4 3.4 3 6.6-0.9 11.3-4.2 5.1-16.3 2.8-18.7-3.2-5.5-14 7.6-32.5 19.5-31.6 31.2 2.3 34.8 35.7 55.6 64.5 1.2 1.7-8.4 1.5-8.4 1.5z"/>
<path class="st3" d="m323.7 92.5c-5.5 10.6-50.9 28-50.9 28s44.2 16.8 50.3 28l0.6 16.4c-22.5-30.6-45-33.5-62.4-34.4-12.5-0.6-11.2 6.6-8.9 9.5 20.2 25.7-5.9 33.1-9.8 54.4-0.2 1.1-3.2-3.6-4.2-9.8-0.6-4 0.6-10 0.6-10-9.1 14.9-20.4 3-27.4 17.8 0 0-1.5-2.3-2.3-3-2.1-1.9-8.5-0.9-9.5-17.8 0-0.6-7.4 1.3-7.4 1.3 4.2-14 39.9-29.5 30.6-38.8-10.6-10.2-11.3 21.9-27.8 24.2-0.9 0.2 2.5-9.3 2.5-9.3-7.8 0.4-11.2 9.3-11.9 14.6l-1.9-4.9c-7.4-4.2 1.7-25.1-1.5-28.7-2.6-2.8-11.5 8.7-15.3 10.6s-25.3 1.9-14.7 14.9c0.8 1.1-2.1-5.9 2.8-6.8 5.5-0.9 5.3 5.5 5.3 6 0 2.6-4.9 9.3-12.7 5.5-0.4-0.2-14.7-10.6 4-25.5 0 0-11.5 7-23.4-5.5-2.6-2.6-6-6-10.2-8.7 4.2-2.6 7.2-5.7 9.8-8.5 12.1-12.5 23.4-5.7 23.4-5.7-18.7-14.7-4.5-25.1-4-25.3 7.8-3.8 12.5 2.8 12.7 5.5 0 0.6 0.2 7-5.3 6-4.9-0.9-2.1-7.8-2.8-6.8-10.6 13 11 13 14.9 14.9 3.8 1.9 12.7 13.4 15.3 10.6 3.4-3.6-5.9-24.6 1.5-28.7l1.7-4.9c0.9 5.3 4.3 14.2 12.1 14.6 0 0-3.4-9.5-2.5-9.3 16.4 2.1 17.4 34.4 27.8 24 9.3-9.1-26.5-24.6-30.6-38.6 0 0 7.4 1.9 7.4 1.3 0.9-17 7.4-16.1 9.3-18 0.8-0.8 2.1-3 2.1-3 7 14.9 18.5 2.8 27.4 17.8 0 0-1.3-6-0.8-10 0.9-6.2 4-10.8 4.2-9.8 4.2 21.4 30.2 28.5 10 54.3-2.3 2.8-3.4 10.2 9.1 9.5 17.4-0.9 39.9-4 62.2-34.6l0.6 16.7z"/>
<path class="st4" d="m184 158.6c2.5-20.8 20-27.6 19.7-37.8-0.4-10.2-18.1-20.8-20.2-38.2m25 106.3c-13.8-28.7 30.6-38.4 29.3-68.1-1.3-28.2-43.5-40.6-29.5-68.4m64.1 68.2h-154.2"/>
<path class="st3" d="m258.3 262.6c-4.9-13.4-19.1-17.2-27.2-17.4-9.1-0.4-23.3 12.1-32 17.4-7.8 4.7-21.7-1.5-24-7-4.9-12.1 2.8-14.4 6.6-13.8 0 0-4.5 8.7 3 7.6 4.7-0.8 6-7.8 5.1-10.6-1.5-5.7-9.5-5.1-12.7-4.2-10.4 3-8.7 17.6-5.1 23.1 5.1 8.3 18 9.5 26.1 8.3 12.3-1.9 22.5-14.6 29.9-14.2 1.9 0 4 6.8 2.1 7.2-12.5 2.3-10.8 11.2-10.8 11.2v0.2s-1.7 8.7 10.8 11c1.9 0.4-0.6 7.4-2.5 7.4-7.4 0.4-17-12.7-29.5-14.4-8.1-1.1-21 0-26.1 8.3-3.4 5.5-5.1 20 5.1 23.1 3.2 0.9 11.2 1.5 12.9-4.2 0.8-2.8-0.4-10-5.1-10.6-7.6-1.1-3 7.6-3 7.6-3.8 0.8-11.5-1.7-6.6-13.8 2.3-5.5 16.3-11.7 24-7 8.7 5.3 22.9 17.8 32 17.4 8.1-0.4 22.3-4 27.2-17.4v-15.1h-0.2z"/>
<path class="st3" d="m321 253.7c-1.7 8.9-24.2 16.6-24.2 16.6s22.1 11.5 25.1 20.8l-0.6 10.8c-7.2-24.4-34.6-26.3-34.6-26.3 5.9 8.3 11 19.7-3 31 0 0 4.2-10.6 2.1-13 0 0-1.9 6.6-9.8 12.7-3.2 2.6-12.1 2.1-16.1 4.5l3.4-10.8c-4.2 8.7-15.9 9.8-15.9 9.8-0.8-3-0.4-10.2 3.4-15.7 6.8-10.4 5.1-18 5.1-18-5.9 13-29.1 14.2-33.5 11-0.6-0.4 5.1-6 5.1-6-2.1 0.4-7.9-3.8-7.8-4.9 0.2-1.7 4-5.3 4.7-6.4 0 0-4.3-3.6-4.5-5.3-0.2-1.1 5.7-5.3 7.8-4.9 0 0-5.9-5.7-5.1-6 4.3-3.2 27.6-2.1 33.5 11 0 0 1.7-7.4-5.3-18-3.6-5.5-4-12.9-3.2-15.7 0 0 11.9 1.1 15.9 9.8l-3.4-10.8c4 2.3 12.9 1.9 16.1 4.5 7.9 6 9.8 12.7 9.8 12.7 2.1-2.5-2.1-13-2.1-13 14 11.3 8.9 22.7 3 31 0 0 27.6-1.9 34.6-26.3l-0.5 14.9z"/>
<path class="st3" d="m190.8 273.4c-7.6 0.2-18 5.5-27.4 4.2-6.8-0.9-18.9-9.1-18.9-9.1s12.3-6.4 18.5-7.8c10-2.3 20 6.4 27.6 6.6 1.3 0 1.7 5.9 0.2 6.1z"/>
<path class="st3" d="m191 258.1c4.2-0.9 3.4 11.9 3.4 11.9 0 1.9 0.6 11.3-3.4 12.1-4.5-0.6-3.2-12.1-3.2-12.1s-0.6-12.1 3.2-11.9z"/>
<path class="st3" d="m219.1 270 78.3 0.6m-34.6 30.8 11.2-31.2m0.1 0-11-30.6"/>
<path class="st3" d="m323.3 661.1c-7.8-20.8-35.7-18.5-35.7-18.5s28 0.2 35.2-24.2l0.5 42.7z"/>
<path class="st3" d="m323.3 785.4c-7.8 20.8-35.7 18.5-35.7 18.5s28-0.2 35.2 24.2l0.5-42.7z"/>
<path class="st3" d="m258.8 804.5s11.5 9.3 19.3 7.4c0 0-8.9 8.5-1.5 15.3 0 0 2.3-8.9 12.9-10.4 8.9-1.3 12.5-8.7 12.5-12.3v0.2c0.2-3.6-3.4-10.8-12.5-12.3-10.6-1.7-12.9-10.4-12.9-10.4-7.4 6.6 1.5 15.3 1.5 15.3-7.7-1.9-19.3 7.2-19.3 7.2z"/>
<path class="st3" d="m322.3 481.3c-7.8 20.8-35.7 18.5-35.7 18.5s28-0.2 35.2 24.2l0.5-42.7z"/>
<path class="st3" d="m323.3 360.9c-7.8-20.8-35.7-18.5-35.7-18.5s28 0.2 35.2-24.2l0.5 42.7z"/>
<path class="st3" d="m323.3 179.2c-7.8 20.8-35.7 18.5-35.7 18.5s28-0.2 35.2 24.2l0.5-42.7z"/>
<path class="st3" d="m323.3 59.7c-7.8-20.8-35.7-18.5-35.7-18.5s28 0.2 35.2-24.2l0.5 42.7z"/>
<rect class="st3" x="321.4" y="-1.5" width="10.4" height="850.4"/>
<path class="st3" d="m259.4 641.3s11.5 9.3 19.3 7.4c0 0-8.9 8.5-1.5 15.3 0 0 2.3-8.9 12.9-10.4 8.9-1.3 12.5-8.7 12.5-12.3v0.2c0.2-3.6-3.4-10.8-12.5-12.3-10.6-1.7-12.9-10.4-12.9-10.4-7.4 6.6 1.5 15.3 1.5 15.3-7.8-1.9-19.3 7.2-19.3 7.2z"/>
<path class="st3" d="m258.8 500.1s11.5 9.3 19.3 7.4c0 0-8.9 8.5-1.5 15.3 0 0 2.3-8.9 12.9-10.4 8.9-1.3 12.5-8.7 12.5-12.3v0.2c0.2-3.6-3.4-10.8-12.5-12.3-10.6-1.7-12.9-10.4-12.9-10.4-7.4 6.6 1.5 15.3 1.5 15.3-7.7-1.9-19.3 7.2-19.3 7.2z"/>
<path class="st3" d="m259.4 342.6s11.5 9.3 19.3 7.4c0 0-8.9 8.5-1.5 15.3 0 0 2.3-8.9 12.9-10.4 8.9-1.3 12.5-8.7 12.5-12.3v0.2c0.2-3.6-3.4-10.8-12.5-12.3-10.6-1.7-12.9-10.4-12.9-10.4-7.4 6.6 1.5 15.3 1.5 15.3-7.8-1.9-19.3 7.2-19.3 7.2z"/>
<path class="st3" d="m259.4 197.8s11.5 9.3 19.3 7.4c0 0-8.9 8.5-1.5 15.3 0 0 2.3-8.9 12.9-10.4 8.9-1.3 12.5-8.7 12.5-12.3v0.2c0.2-3.6-3.4-10.8-12.5-12.3-10.6-1.7-12.9-10.4-12.9-10.4-7.4 6.6 1.5 15.3 1.5 15.3-7.8-1.9-19.3 7.2-19.3 7.2z"/>
<path class="st3" d="m260.1 40.8s11.5 9.3 19.3 7.4c0 0-8.9 8.5-1.5 15.3 0 0 2.3-8.9 12.9-10.4 8.9-1.3 12.5-8.7 12.5-12.3v0.2c0.2-3.6-3.4-10.8-12.5-12.3-10.6-1.7-12.9-10.4-12.9-10.4-7.4 6.6 1.5 15.3 1.5 15.3-7.7-1.8-19.3 7.2-19.3 7.2z"/>
<path class="st5" d="m390.2 800.3c0 7.8-6.4 14.2-14.2 14.2s-14.2-6.2-14.2-14.2c0-7.8 6.4-14.2 14.2-14.2 8 0 14.2 6.4 14.2 14.2z"/>
<path class="st5" d="m390.2 612c0 7.8-6.4 14.2-14.2 14.2s-14.2-6.2-14.2-14.2c0-7.8 6.4-14.2 14.2-14.2 8 0.2 14.2 6.4 14.2 14.2z"/>
<path class="st5" d="m390.2 423.9c0 7.8-6.4 14.2-14.2 14.2s-14.2-6.2-14.2-14.2c0-7.8 6.4-14.2 14.2-14.2 8 0 14.2 6.2 14.2 14.2z"/>
<path class="st5" d="m390.2 235.6c0 7.8-6.4 14.2-14.2 14.2s-14.2-6.2-14.2-14.2c0-7.8 6.4-14.2 14.2-14.2 8 0 14.2 6.4 14.2 14.2z"/>
<path class="st5" d="m390.2 47.5c0 7.8-6.4 14.2-14.2 14.2s-14.2-6.2-14.2-14.2c0-7.8 6.4-14.2 14.2-14.2 8 0 14.2 6.2 14.2 14.2z"/>
<polygon class="st3" points="352.6 142.4 376 118.9 399.5 142.4 376 165.6"/>
<polygon class="st6" points="354.3 142.4 361.3 149.5 368.7 149.5 368.7 156.9 375.9 163.9 376.2 163.9 383.2 156.9 383.2 149.5 390.6 149.5 397.8 142.4 397.8 142.2 390.6 135 383.2 135 383.2 127.6 376.2 120.6 375.9 120.6 368.7 127.6 368.7 135 361.3 135 354.3 142.2"/>
<path class="st3" d="m366.2 123.6c1.1 1.1 0 4-2.5 6.2-2.5 2.5-5.3 3.6-6.2 2.5-1.1-1.1 0-3.8 2.5-6.2 2.2-2.5 5.1-3.6 6.2-2.5z"/>
<path class="st3" d="m385.9 123.6c-1.1 1.1 0 4 2.5 6.2 2.5 2.5 5.3 3.6 6.2 2.5 1.1-1.1 0-3.8-2.5-6.2-2.3-2.5-5.1-3.6-6.2-2.5z"/>
<path class="st3" d="m385.9 160.9c-1.1-1.1 0-3.8 2.5-6.2 2.5-2.5 5.3-3.6 6.2-2.5 1.1 1.1 0 4-2.5 6.2-2.3 2.3-5.1 3.4-6.2 2.5z"/>
<path class="st3" d="m366.2 160.9c-1.1 1.1-4 0-6.2-2.5-2.5-2.5-3.6-5.3-2.5-6.2 1.1-1.1 4 0 6.2 2.5 2.3 2.2 3.5 5.1 2.5 6.2z"/>
<path class="st3" d="m368.7 115.7c0-1.1 2.6-2.3 5.9-2.6 0.6 0 1.5-0.8 1.5-0.8s0.9 0.8 1.3 0.8c3.4 0.2 6 1.3 6 2.6 0 1.5-3.4 2.6-7.6 2.6-3.9 0.1-7.1-1.3-7.1-2.6z"/>
<path class="st3" d="m383.6 168.8c0 1.1-2.6 2.3-5.9 2.6-0.6 0-1.5 0.8-1.5 0.8s-0.9-0.8-1.3-0.8c-3.4-0.2-6-1.3-6-2.6 0-1.5 3.4-2.6 7.6-2.6 3.7 0 7.1 1.3 7.1 2.6z"/>
<path class="st3" d="m349.2 149.7c-1.1 0-2.3-2.6-2.6-5.9 0-0.6-0.8-1.5-0.8-1.5s0.8-0.9 0.8-1.3c0.2-3.4 1.3-6 2.6-6 1.5 0 2.6 3.4 2.6 7.4 0.2 3.9-1.1 7.3-2.6 7.3z"/>
<path class="st3" d="m402.9 134.8c1.1 0 2.3 2.6 2.6 5.9 0 0.6 0.8 1.5 0.8 1.5s-0.8 0.9-0.8 1.3c-0.2 3.4-1.3 6-2.6 6-1.5 0-2.6-3.4-2.6-7.4-0.1-3.9 1.1-7.3 2.6-7.3z"/>
<path class="st3" d="m371.9 362.1c0 2.3 1.9 4.2 4.2 4.2s4.3-1.9 4.3-4.2-1.9-4.2-4.3-4.2c-2.3-0.2-4.2 1.7-4.2 4.2z"/>
<path class="st3" d="m371.9 295.7c0 2.3 1.9 4.2 4.2 4.2s4.3-1.9 4.3-4.2-1.9-4.2-4.3-4.2c-2.3-0.2-4.2 1.7-4.2 4.2z"/>
<path class="st3" d="m391.7 329c0 15.3-7 27.8-15.9 27.8-8.7 0-15.9-12.5-15.9-27.8s7-28 15.9-28 15.9 12.5 15.9 28z"/>
<path class="st7" d="m389.3 328.6c0-13.2-5.3-24-11.9-25.3-0.4 0-1.3 1.7-1.3 1.7s-0.9-1.7-1.3-1.7c-6.6 1.3-11.9 12.1-11.9 25.3v0.2 0.2c0 13.2 5.3 24 11.9 25.3 0.4 0 1.3-1.7 1.3-1.7s0.9 1.7 1.3 1.7c6.6-1.3 11.9-12.1 11.9-25.3v-0.2-0.2z"/>
<path class="st3" d="m396.8 329c0-1.1-0.9-2.1-2.1-2.1-1.1 0-2.1 0.9-2.1 2.1 0 1.1 0.9 2.1 2.1 2.1 1.2-0.1 2.1-1 2.1-2.1z"/>
<path class="st3" d="m359.4 329c0-1.1-0.9-2.1-2.1-2.1s-2.1 0.9-2.1 2.1c0 1.1 0.9 2.1 2.1 2.1s2.1-1 2.1-2.1z"/>
<path class="st3" d="m389.7 353.5c0-1.1-0.9-2.1-2.1-2.1s-2.1 0.9-2.1 2.1c0 1.1 0.9 2.1 2.1 2.1s2.1-0.9 2.1-2.1z"/>
<path class="st3" d="m366.6 353.5c0-1.1-0.9-2.1-2.1-2.1-1.1 0-2.1 0.9-2.1 2.1 0 1.1 0.9 2.1 2.1 2.1 1.1 0 2.1-0.9 2.1-2.1z"/>
<path class="st3" d="m360.9 341.8c0-2.3-1.9-4.2-4.2-4.2s-4.3 1.9-4.3 4.2 1.9 4.2 4.3 4.2c2.3 0 4.2-1.9 4.2-4.2z"/>
<path class="st3" d="m399.7 341.6c0-2.3-1.9-4.2-4.2-4.2s-4.2 1.9-4.2 4.2 1.9 4.2 4.2 4.2 4.2-1.9 4.2-4.2z"/>
<path class="st3" d="m362.4 304.2c0 1.1 0.9 2.1 2.1 2.1 1.1 0 2.1-0.9 2.1-2.1s-0.9-2.1-2.1-2.1c-1.1-0.2-2.1 0.8-2.1 2.1z"/>
<path class="st3" d="m385.5 304.2c0 1.1 0.9 2.1 2.1 2.1s2.1-0.9 2.1-2.1-0.9-2.1-2.1-2.1c-1.2-0.2-2.1 0.8-2.1 2.1z"/>
<path class="st3" d="m391.2 315.9c0 2.3 1.9 4.2 4.2 4.2s4.2-1.9 4.2-4.2-1.9-4.2-4.2-4.2-4.2 1.8-4.2 4.2z"/>
<path class="st3" d="m352.4 315.9c0 2.3 1.9 4.2 4.3 4.2 2.3 0 4.2-1.9 4.2-4.2s-1.9-4.2-4.2-4.2c-2.4 0.1-4.3 2-4.3 4.2z"/>
<path class="st3" d="m371.9 735.4c0 2.3 1.9 4.2 4.2 4.2s4.3-1.9 4.3-4.2-1.9-4.2-4.3-4.2c-2.3 0.1-4.2 2-4.2 4.2z"/>
<path class="st3" d="m371.9 669.1c0 2.3 1.9 4.2 4.2 4.2s4.3-1.9 4.3-4.2-1.9-4.2-4.3-4.2c-2.3 0-4.2 1.9-4.2 4.2z"/>
<path class="st3" d="m391.7 702.4c0 15.3-7 28-15.9 28-8.7 0-15.9-12.5-15.9-28 0-15.3 7-27.8 15.9-27.8s15.9 12.4 15.9 27.8z"/>
<path class="st7" d="m389.3 702.2c0-13.2-5.3-24-11.9-25.3-0.4 0-1.3 1.7-1.3 1.7s-0.9-1.7-1.3-1.7c-6.6 1.3-11.9 12.1-11.9 25.3v0.2 0.2c0 13.2 5.3 24 11.9 25.3 0.4 0 1.3-1.7 1.3-1.7s0.9 1.7 1.3 1.7c6.6-1.3 11.9-12.1 11.9-25.3v-0.2-0.2z"/>
<path class="st3" d="m396.8 702.4c0-1.1-0.9-2.1-2.1-2.1-1.1 0-2.1 0.9-2.1 2.1 0 1.1 0.9 2.1 2.1 2.1 1.2-0.1 2.1-1 2.1-2.1z"/>
<path class="st3" d="m359.4 702.4c0-1.1-0.9-2.1-2.1-2.1s-2.1 0.9-2.1 2.1c0 1.1 0.9 2.1 2.1 2.1s2.1-1 2.1-2.1z"/>
<path class="st3" d="m389.7 726.9c0-1.1-0.9-2.1-2.1-2.1s-2.1 0.9-2.1 2.1 0.9 2.1 2.1 2.1 2.1-0.9 2.1-2.1z"/>
<path class="st3" d="m366.6 726.9c0-1.1-0.9-2.1-2.1-2.1-1.1 0-2.1 0.9-2.1 2.1s0.9 2.1 2.1 2.1c1.1 0 2.1-0.9 2.1-2.1z"/>
<path class="st3" d="m360.9 715.2c0-2.3-1.9-4.2-4.2-4.2s-4.3 1.9-4.3 4.2 1.9 4.2 4.3 4.2c2.3 0 4.2-1.9 4.2-4.2z"/>
<path class="st3" d="m399.7 715c0-2.3-1.9-4.2-4.2-4.2s-4.2 1.9-4.2 4.2 1.9 4.2 4.2 4.2 4.2-1.7 4.2-4.2z"/>
<path class="st3" d="m362.4 677.6c0 1.1 0.9 2.1 2.1 2.1 1.1 0 2.1-0.9 2.1-2.1 0-1.1-0.9-2.1-2.1-2.1-1.1 0-2.1 1-2.1 2.1z"/>
<path class="st3" d="m385.5 677.6c0 1.1 0.9 2.1 2.1 2.1s2.1-0.9 2.1-2.1c0-1.1-0.9-2.1-2.1-2.1s-2.1 1-2.1 2.1z"/>
<path class="st3" d="m391.2 689.3c0 2.3 1.9 4.2 4.2 4.2s4.2-1.9 4.2-4.2-1.9-4.2-4.2-4.2-4.2 1.9-4.2 4.2z"/>
<path class="st3" d="m352.4 689.5c0 2.3 1.9 4.2 4.3 4.2 2.3 0 4.2-1.9 4.2-4.2s-1.9-4.2-4.2-4.2c-2.4-0.1-4.3 1.7-4.3 4.2z"/>
<polygon class="st3" points="399.5 518.2 376 541.7 352.6 518.2 376 494.8"/>
<polygon class="st6" points="354.3 518.6 361.3 525.6 368.7 525.6 368.7 533 375.9 540 376.2 540 383.2 533 383.2 525.6 390.6 525.6 397.8 518.6 397.8 518.2 390.6 511.2 383.2 511.2 383.2 503.8 376.2 496.7 375.9 496.7 368.7 503.8 368.7 511.2 361.3 511.2 354.3 518.2"/>
<path class="st3" d="m366.2 499.9c1.1 1.1 0 3.8-2.5 6.2-2.5 2.5-5.3 3.6-6.2 2.5-1.1-1.1 0-3.8 2.5-6.2 2.2-2.5 5.1-3.7 6.2-2.5z"/>
<path class="st3" d="m385.9 499.7c1.1-1.1 4 0 6.2 2.5 2.5 2.5 3.6 5.3 2.5 6.2-1.1 1.1-4 0-6.2-2.5-2.5-2.2-3.7-5.1-2.5-6.2z"/>
<path class="st3" d="m385.9 536.9c-1.1-1.1 0-3.8 2.5-6.2s5.3-3.6 6.2-2.5c1.1 1.1 0 3.8-2.5 6.2s-5.1 3.7-6.2 2.5z"/>
<path class="st3" d="m366.2 536.9c-1.1 1.1-4 0-6.4-2.5-2.5-2.5-3.6-5.3-2.5-6.2 1.1-1.1 4 0 6.2 2.5 2.7 2.5 3.7 5.3 2.7 6.2z"/>
<path class="st3" d="m368.7 491.7c0-1.1 2.6-2.3 5.9-2.6 0.6 0 1.5-0.8 1.5-0.8s0.9 0.8 1.3 0.8c3.4 0.2 6 1.3 6 2.6 0 1.5-3.4 2.6-7.6 2.6-3.9 0.1-7.1-1-7.1-2.6z"/>
<path class="st3" d="m383.6 545.1c0 1.1-2.6 2.3-5.9 2.6-0.6 0-1.5 0.8-1.5 0.8s-0.9-0.8-1.3-0.8c-3.4-0.2-6-1.3-6-2.6 0-1.5 3.4-2.6 7.6-2.6 3.7-0.1 7.1 1 7.1 2.6z"/>
<path class="st3" d="m349.2 525.8c-1.1 0-2.3-2.6-2.6-5.9 0-0.6-0.8-1.5-0.8-1.5s0.8-0.9 0.8-1.3c0.2-3.4 1.3-6 2.6-6 1.5 0 2.6 3.4 2.6 7.4 0.2 4.1-1.1 7.3-2.6 7.3z"/>
<path class="st3" d="m402.9 511c1.1 0 2.3 2.6 2.6 5.9 0 0.6 0.8 1.5 0.8 1.5s-0.8 0.9-0.8 1.3c-0.2 3.4-1.3 6-2.6 6-1.5 0-2.6-3.4-2.6-7.4-0.1-4.1 1.1-7.3 2.6-7.3z"/>
</svg>
