<svg version="1.0" viewBox="0 0 750 500" xmlns="http://www.w3.org/2000/svg" xmlns:cc="http://creativecommons.org/ns#" xmlns:dc="http://purl.org/dc/elements/1.1/" xmlns:rdf="http://www.w3.org/1999/02/22-rdf-syntax-ns#"><metadata><rdf:RDF><cc:Work rdf:about=""><dc:format>image/svg+xml</dc:format><dc:type rdf:resource="http://purl.org/dc/dcmitype/StillImage"/></cc:Work></rdf:RDF></metadata><defs><style type="text/css">.str0 {stroke:#000000;stroke-width:3}    .fil1 {fill:none}    .fil2 {fill:#0039F0}    .fil0 {fill:#FFFF00}</style></defs><g transform="translate(0 -1.2561e-5)"><g transform="matrix(1.0069 0 0 1.0069 1069.4 153.86)"></g><g transform="matrix(1.0069 0 0 1.0069 1069.4 153.86)"></g><g transform="matrix(1.0069 0 0 1.0069 1069.4 153.86)"></g><g transform="matrix(1.0069 0 0 1.0069 1069.4 153.86)"></g><g transform="matrix(1.0069 0 0 1.0069 1069.4 153.86)"></g><g transform="matrix(1.0069 0 0 1.0069 1069.4 153.86)"></g><g transform="matrix(1.0069 0 0 1.0069 1069.4 153.86)"></g><g transform="matrix(1.0069 0 0 1.0069 1069.4 153.86)"></g><g transform="matrix(1.0069 0 0 1.0069 1069.4 153.86)"></g><g transform="matrix(1.0069 0 0 1.0069 1069.4 153.86)"></g><g transform="matrix(1.0069 0 0 1.0069 1069.4 153.86)"></g><g transform="matrix(1.0069 0 0 1.0069 1069.4 153.86)"></g><rect x="824.84" y="182.04" width="5.3215" height="0" fill="#e3dbdb"/><rect x="-5.7013e-8" y="-2.943e-5" width="375" height="500" fill="#b81626" fill-rule="evenodd" stroke-width="1pt"/><rect x="375" y="1.2561e-5" width="375" height="500" fill="#fff"/><g transform="translate(3.3127 1.7037)" stroke="#000" stroke-width="1.2335"><path d="m72.831 354.88v-23.462l4.0473-8.7427v-75.709l-3.1275-6.3566v-17.673l5.8774-1.2224v-50.923l-3.15-5.239v-11.805l3.0732-1.1526v6.2868l2.9195-1.4669v-6.1471l3.15-1.2224h7.7598v7.6839h6.9146v-7.7537h7.6445v7.5092h6.4537v-7.6838h6.761l3.3421 1.9908v6.4265l1.9207 1.0129v-6.3217l3.0348 1.432v11.561l-2.9579 5.1691v72.508h6.5305v-2.7243h21.166v-92.783l-4.3216-6.4789v-14.844l3.9375-1.6066v7.8934l4.0335-1.9559v-7.614l4.264-1.6765h10.218v9.5699h8.8354v-9.7445h10.141v9.5699h8.5665v-9.535h8.7585l4.1872 2.2702v8.2078l2.7274 1.1177v-7.8585l4.1104 1.7812v14.652l-3.7838 6.6884v92.486h23.106v2.6894h3.8031v-73.87l-3.15-4.75v-12.179l2.949-1.0867v6.4953l3.1781-1.7782v-6.0754l2.988-1.2595h7.9045v7.8289h6.7093v-8.0018h7.66v7.7054h6.5735v-7.7301h6.7093l3.0966 1.877v6.6682l2.3089 1.0126v-6.3718l2.9608 1.3089v11.63l-2.9608 5.3986v52.868l5.1246 0.34927v16.747l-3.611 7.614v74.638l4.1872 9.2206v23.226l-49.923 19.79h-123.67l-48.975-20.079z" fill="#cab313" fill-rule="evenodd"/><path d="m126.32 216.77h6.5689v7.387l8.5088-1.6765v-8.7316h7.5677v7.0726h5.1476v17.586c-11.619-7.2259-17.034-5.9662-27.582 0.3842l-0.21128-22.021z" fill="#cab313" fill-rule="evenodd"/><path d="m242.73 216.44h-6.3316v7.3946l-8.2015-1.6782v-8.7406h-7.2943v7.0799h-4.9616v17.604c11.2-7.2333 16.419-5.9723 26.585 0.38459l0.20365-22.044z" fill="#cab313" fill-rule="evenodd"/><path d="m98.173 194.63h8.3456v-8.6269c3.3013-4.1681 2.6014-9.7051-4.1392-12.87-7.315 3.7097-7.0586 8.932-4.3024 12.705l0.096039 8.7928z" fill="#0f47af" fill-rule="evenodd"/><path d="m179.66 177.84h10.277v-10.623c4.0651-5.1325 3.2034-11.951-5.0969-15.848-9.0076 4.568-8.6918 10.999-5.2979 15.644l0.11826 10.827z" fill="#0f47af" fill-rule="evenodd"/><path d="m262.78 194.58h8.3456v-8.6269c3.3013-4.1681 2.6014-9.7051-4.1392-12.87-7.315 3.7097-7.0586 8.932-4.3024 12.705l0.09604 8.7928z" fill="#0f47af" fill-rule="evenodd"/><path d="m180.01 234.98h10.443v-13.586c4.1309-6.5639 3.2552-15.284-5.1793-20.268-9.1532 5.842-8.8323 14.066-5.3836 20.007l0.12017 13.847z" fill="#0f47af" fill-rule="evenodd"/><path d="m74.059 240.78 50.227 19.891h121.49l48.78-19.722" fill="none"/><path d="m77.259 247.59 50.171 20.548h114.71l49.057-20.707" fill="none"/><path d="m77.401 264.95 50.093 20.528" fill="none"/><path d="m127.98 284.91h113.51" fill="none"/><path d="m241.9 285.61 49.257-20.607" fill="none"/><path d="m77.324 285.68 50.174 20.495" fill="none"/><path d="m76.872 304.24c0.027166 0 50.748 21.19 50.748 21.19" fill="none"/><path d="m127.92 306.48h113.78l49.478-20.816" fill="none"/><path d="m127.57 325.74h113.71l50.061-21.177" fill="none"/><path d="m172.49 343.37h24.761v-19.597c8.4795-15.104 1.8974-28.68-12.658-38.895-17.473 9.6694-20.447 25.469-12.35 39.642l0.24703 18.85z" fill="#0f47af" fill-rule="evenodd"/><path d="m77.055 322.47 50.784 21.305h113.92l49.6-21.379" fill="none"/><path d="m73.062 331.91 48.861 20.672h123.48l50.136-20.648" fill="none"/><path d="m124.07 243.68v17.079l3.6686 7.5965v75.066l-5.9091 8.8866v22.672" fill="none"/><path d="m245.4 243.54v18.276l-3.7485 6.4706v75.264l3.8905 9.7963v21.462" fill="none"/><path d="m76.499 165.6 9.0725-2.9142h35.693l8.0403 3.0377" fill="none"/><path d="m79.351 170.84 8.8824-2.7907h29.35l8.9503 3.0871" fill="none"/><path d="m126.78 203.02-9.4258-3.2386h-29.224l-8.6686 2.8929c-1.5591 0.91263-1.7815 2.9706 0 3.9268l8.8009-2.4697h29.363l9.3034 2.9142c1.0524-1.1779 0.90735-2.7373-0.1494-4.0256z" fill="#cab313" fill-rule="evenodd"/><path d="m79.296 206.62c-1.9051 1.0068-1.4092 3.5793 0 4.1244l8.9639-3.0377h29.336l8.8281 3.0377c1.1096-0.76432 1.6642-1.7952 0.08149-3.8527l-8.9639-2.7908h-29.316l-8.9299 2.5191z" fill="#cab313" fill-rule="evenodd"/><path d="m85.843 150.19v12.694l2.499 4.4825v71.609" fill="none"/><path d="m120.99 150.02v12.892l-3.3411 5.3098v83.5" fill="none"/><path d="m242.76 202.37 9.4258-3.2386h29.224l8.6686 2.8929c1.5591 0.91263 1.7815 2.9706 0 3.9268l-8.8009-2.4697h-29.363l-9.3034 2.9142c-1.0524-1.1779-0.90735-2.7373 0.1494-4.0256z" fill="#cab313" fill-rule="evenodd"/><path d="m290.25 205.98c1.9051 1.0068 1.4092 3.5793 0 4.1244l-8.9639-3.0377h-29.336l-8.8281 3.0377c-1.1096-0.76431-1.6642-1.7952-0.08149-3.8527l8.9639-2.7908h29.316l8.9299 2.5191z" fill="#cab313" fill-rule="evenodd"/><path d="m283.7 149.55v12.694l-2.499 4.4825v71.609" fill="none"/><path d="m248.55 149.37v12.892l3.3411 5.3098v83.5" fill="none"/><path d="m73.809 223.71 9.2355 3.581v9.8294l8.4478 2.445v-8.8168l8.312 3.1859v9.854l7.2526 2.5191v-9.4836l9.2959 3.7108v10.897l4.6866 1.5714v-10.688l2.9963 1.3796 11.081-0.05528v10.471h8.4206v-10.521h9.9418v10.027h7.9588v-10.126h9.9418v9.8787h8.2305v-9.8293h12.006v10.249h8.1761v-10.249h9.4528v9.533h8.6922v-9.4837h9.6643v9.4127h8.7393v-9.4826h9.0082l3.1116-1.4494v10.775l3.5918-1.3971v-10.688l9.6421-3.7546v9.7794l7.3084-2.829v-10.059l8.1919-3.1085v9.1158l8.1439-2.8291v-9.8493l9.2963-3.4927" fill="none"/><path d="m153.61 188.41 12.294-4.2241h38.116l11.306 3.7731c2.0335 1.1903 2.3236 3.8745 0 5.1217l-11.479-3.2212h-38.298l-12.134 3.801c-1.3727-1.5363-1.1834-3.5702 0.19486-5.2505z" fill="#cab313" fill-rule="evenodd"/><path d="m215.53 193.11c2.4848 1.3132 1.838 4.6685 0 5.3794l-11.691-3.962h-38.263l-11.514 3.962c-1.4472-0.99688-2.1706-2.3414-0.10629-5.025l11.691-3.6399h38.236l11.647 3.2856z" fill="#cab313" fill-rule="evenodd"/><path d="m239.66 164.75 9.6037-2.6544h34.823l8.4608 2.7767" fill="none"/><path d="m242.58 170.07 8.989-2.829h28.6l9.45 3.091" fill="none"/><path d="m162.14 121.94v15.707l3.4564 6.0772v99.855" fill="none"/><path d="m208.43 122.03v15.892l-4.1488 6.3566v99.122" fill="none"/><path d="m150.11 141.45 11.735-3.3094h46.395l11.191 3.4576" fill="none"/><path d="m153.72 148.21 12.115-3.7045h37.716l12.305 3.9638" fill="none"/><path d="m79.704 221.61v4.5442" fill="none"/><path d="m289.68 223.32v2.1305" fill="none"/><path d="m92.959 253.88-0.076829 17.324" fill="none"/><path d="m104.87 276.09v20.607" fill="none"/><path d="m91.883 291.63v18.895" fill="none"/><path d="m104.41 315.63v18.092" fill="none"/><path d="m141.8 268.19v16.695" fill="none"/><path d="m184.96 284.29v-16.004" fill="none"/><path d="m227.53 268.24v16.399" fill="none"/><path d="m161.87 284.66v21.857" fill="none"/><path d="m206.77 284.64v21.931" fill="none"/><path d="m227.42 306.52v19.264" fill="none"/><path d="m141.64 306.52v19.214" fill="none"/><path d="m162.01 325.74v17.979" fill="none"/><path d="m206.56 325.88v17.881" fill="none"/><path d="m275.66 254.11c0.05433 0.19757 0 17.189 0 17.189" fill="none"/><path d="m263.98 296.64v-20.4" fill="none"/><path d="m276.64 291.8v18.819" fill="none"/><path d="m264.25 315.86v18.127" fill="none"/><path d="m154.27 240.5v13.132" fill="none"/><path d="m215.96 240.78v12.259" fill="none"/></g></g></svg>