<?xml version="1.0" encoding="UTF-8"?><svg version="1.0" viewBox="0 0 750 500" xmlns="http://www.w3.org/2000/svg" xmlns:xlink="http://www.w3.org/1999/xlink"><g transform="translate(-47.857 -116.65)"><g transform="matrix(.070297 0 0 .070297 3.4215 501.42)"></g><g transform="matrix(3.125 0 0 3.125 -101.7 -1310.4)"><g transform="translate(0 -3.7461)"><rect x="47.857" y="460.39" width="240" height="53.333" fill="#00ab39"/><rect x="47.857" y="567.06" width="240" height="53.333"/><rect x="47.857" y="513.73" width="240" height="53.333" fill="#fff"/></g><g transform="matrix(.077228 0 0 .077228 84.359 501.44)" stroke="#000"><g transform="translate(-55.804)" fill-rule="evenodd"><path d="m462.01 206.04 90.376 15.203h146.97l87.842-16.048-75.172-19.427h-171.46l-78.551 20.271z" fill="#ed1c24" stroke-width=".91025px"/><path d="m510.88 82.188-21.375 25.062-33.906-5.9062-20.656 19.188-31.688-5.9062c12.874 35.11 33.587 55.538 42.75 92.906l93.625-20.656h78.875 14 78.906l93.625 20.656c9.1632-37.368 29.876-57.797 42.75-92.906l-31.719 5.9062-20.625-19.188-33.906 5.9062-21.375-25.062-25.812 19.906-32.438-17.688-28.75 11.781-20.656-7.9062v-5.3438l-7 2.6875-7-2.6875v5.3438l-20.625 7.9062-28.781-11.781-32.406 17.688-25.812-19.906z" fill="#eac102" stroke-width=".91025px"/><path d="m795.46 200.06c-0.48273 0.01116-0.96364 0.06343-1.4375 0.15625-110.3 19.064-222.88 16.663-337.12-0.03125-3.0652-0.56955-6.1962 0.58448-8.1586 3.0071-1.9624 2.4226-2.4412 5.725-1.2476 8.6052 1.1936 2.8801 3.868 4.8759 6.9687 5.2002 115.59 16.891 230.02 19.404 342.47-0.03125 4.4442-0.66168 7.606-4.6676 7.2171-9.1439-0.38888-4.4763-4.1941-7.877-8.6858-7.7623z" fill="#eac102" stroke-linecap="round" stroke-linejoin="round" stroke-width=".91025"/><path d="m625.25 173.16c-66.37-0.00231-132.6 9.1702-179.56 27.531-2.9778 0.99493-5.1648 3.5502-5.688 6.6458s0.7023 6.2278 3.1876 8.1462 5.8257 2.3108 8.6879 1.0205c87.132-34.07 259.2-34.086 347.69 0.03125 4.3838 1.6914 9.3086-0.49124 11-4.875s-0.49124-9.3086-4.875-11c-47.558-18.337-114.07-27.498-180.44-27.5z" fill="#eac102" stroke-linecap="round" stroke-linejoin="round" stroke-width=".91025"/><path d="m625.01 110.5c-76.776-1e-5 -153.29 11.015-207.12 33.75-2.2089 0.8567-3.7769 2.8473-4.0922 5.1955s0.67177 4.682 2.5764 6.0911 4.4251 1.6705 6.5783 0.68212c51.126-21.59 126.55-32.719 202.06-32.719s151.29 11.14 203.19 32.75c2.1511 0.93219 4.6374 0.63395 6.507-0.78052s2.8327-3.726 2.5206-6.0495c-0.31209-2.3235-1.8511-4.299-4.0276-5.17-54.547-22.715-131.41-33.75-208.19-33.75z" fill="#eac102" stroke-linecap="round" stroke-linejoin="round" stroke-width=".91025"/><path d="m625.5-26.094-0.46875 0.78125c-5.7869 8.9521-29.377 9.4266-30.312 21.969-1.0237 13.729 22.794 16.477 18.062 24.5-4.4678 7.5753-10.437-14.895-26.031-10.594-15.8 3.861-2.3992 20.493-16.219 29.688 12.098 6.1063 9.6956 29.633 24.812 23.594 8.7715-6.4166 18.059-15.874 24.5-8.4688 1.5232 6.8476 0.09789 14.061-2.6875 21.438-6.7459 6.0398-13.44 8.9818-19.875 9.2812-7.3545 0.34222-15.186-2.545-23.781-10.719-1.6429-1.5583-3.9114-2.2973-6.1562-2-2.2448 0.29729-4.2256 1.599-5.4062 3.5312-4.4038 7.2276-11.847 13.761-19.312 15.25-7.4652 1.489-16.089-0.535-26.906-14.438-0.02325-0.030105-0.03886-0.064073-0.0625-0.09375-2.6376-6.0243-2.0942-11.843-1.5938-15.656 13.77-5.508 18.102 14.639 30.969 8.0938 13.797-7.0191 2.4169-22.581 16.5-30.688-9.9595-3.0425-8.9651-31.585-21.969-28.344-13.084 3.2615-13.288 28.624-25.656 22.688-8.424-5.7582 12.625-10.645 12.156-26.688-0.3858-13.189-24.635-3.5729-28.562-20.375-4.0266 15.114-29.036 13.231-25.906 29.656 2.6264 13.783 21.616 17.401 16.812 23.656-7.6642 7.7376-21.519-14.474-28.812-10.75-7.2936 3.7244-2.4496 31.301-10.281 35.781 11.44 2.9589 16.981 22.749 29.156 16.75 12.303-6.0618 10.361-20.155 21.281-16.75 0.76426 6.7754 2.6802 12.971 1.5625 20.688-3.9346 8.2597-19.627 21.65-42.656 4.875-2.2042-1.6098-5.1184-1.9-7.5938-0.75-2.4753 1.15-4.1211 3.5585-4.3125 6.2812-0.67677 9.5378-7.2687 15.34-15.875 16.594-8.2991 1.2092-18.227-2.0268-25.594-13.938 1.1055-2.3438 2.9772-4.4023 6.25-6.0312 5.1035-1.9115 10.187 2.3972 18.75 1.8125 9.6608-1.929-2.1894-20.657 5.4375-29.906-13.531-3.2271-11.646-20.379-33.031-15.375-11.058 8.3973-1.2041 20.852-7.5312 21.594-6.288 0.73718-4.9714-15.1-13.531-21.312-8.7668-6.3631-30.409-8.9103-27.562 16.375 24.684-6.6054 27.848 17.889 36.406 34.562-0.1275 1.468 0.18139 2.9955 0.96875 4.375 10.017 17.543 26.875 24.832 41.594 22.688 11.178-1.6286 21.224-8.8365 25.938-19.406 23.296 11.534 45.018 2.7134 53.969-11.656 10.776 9.3131 22.358 12.454 32.625 10.406 10.101-2.0146 18.224-8.0976 24.219-15.281 8.9607 6.5404 18.573 9.9474 28.188 9.5 9.8357-0.45767 19.132-4.6837 27.438-11.594 8.2984 6.91 17.571 11.136 27.406 11.594 9.6134 0.44733 19.228-2.9615 28.188-9.5 5.9954 7.1896 14.112 13.265 24.219 15.281 10.267 2.0478 21.849-1.0931 32.625-10.406 8.9504 14.37 30.673 23.19 53.969 11.656 4.7134 10.57 14.76 17.778 25.938 19.406 14.719 2.1446 31.577-5.144 41.594-22.688 0.85906-1.321 1.2478-2.8536 1.1875-4.375 8.563-16.674 11.747-41.17 36.438-34.562 2.8466-25.285-18.796-22.738-27.562-16.375-8.5598 6.213-7.2433 22.05-13.531 21.312-6.3271-0.74177 3.4951-13.196-7.5625-21.594-21.385-5.0044-19.5 12.148-33.031 15.375 7.6269 9.2489-4.1921 27.977 5.4688 29.906 8.5629 0.58467 13.615-3.724 18.719-1.8125 3.1881 1.5867 5.0704 3.5744 6.1875 5.8438-7.378 12.061-17.377 15.34-25.719 14.125-8.6063-1.254-15.229-7.0559-15.906-16.594-0.19138-2.7227-1.8371-5.1313-4.3125-6.2812-2.4753-1.15-5.3896-0.85984-7.5938 0.75-22.434 16.341-37.89 4.0633-42.312-4.2188-1.3256-8.0195 0.65197-14.38 1.4375-21.344 10.92-3.4054 8.9787 10.688 21.281 16.75 12.175 5.999 17.748-13.791 29.188-16.75-7.8317-4.4807-2.9876-32.057-10.281-35.781-7.2936-3.7244-21.148 18.488-28.812 10.75-4.8038-6.2553 14.186-9.8737 16.812-23.656 3.1301-16.426-21.88-14.542-25.906-29.656-3.9277 16.802-28.208 7.1857-28.594 20.375-0.46927 16.043 20.611 20.929 12.188 26.688-12.369 5.937-12.572-19.426-25.656-22.688-13.004-3.2414-12.009 25.301-21.969 28.344 14.083 8.106 2.703 23.668 16.5 30.688 12.866 6.5457 17.167-13.602 30.938-8.0938 0.48727 3.7133 1.0628 9.3333-1.3438 15.188-0.17584 0.185-0.37288 0.35739-0.53125 0.5625-10.817 13.903-19.441 15.926-26.906 14.438-7.4653-1.489-14.909-8.0224-19.312-15.25-1.1806-1.9323-3.1614-3.234-5.4062-3.5312-2.2448-0.29729-4.5134 0.44165-6.1562 2-8.5949 8.1738-16.395 11.061-23.75 10.719-6.3575-0.29583-12.93-3.1687-19.594-9.0625-2.8318-7.4532-4.3195-14.741-2.7812-21.656 6.4408-7.4057 15.729 2.0522 24.5 8.4688 15.117 6.0394 12.715-17.487 24.812-23.594-13.82-9.195-0.44984-25.827-16.25-29.688-15.594-4.3015-21.563 18.169-26.031 10.594-4.7316-8.0225 19.117-10.771 18.094-24.5-0.93518-12.542-24.526-13.017-30.312-21.969l-0.46875-0.78125z" fill="#eac102" stroke-linecap="round" stroke-linejoin="round" stroke-width=".91025"/><path transform="translate(-1.1055 -3.0126)" d="m463.94 92.479c0 6.0313-4.8893 10.921-10.921 10.921s-10.921-4.8893-10.921-10.921 4.8893-10.921 10.921-10.921 10.921 4.8893 10.921 10.921v0z" fill="#e3e4e5" stroke-linecap="round" stroke-linejoin="round" stroke-width=".91025"/><path transform="translate(346.09 -3.0126)" d="m463.94 92.479c0 6.0313-4.8893 10.921-10.921 10.921s-10.921-4.8893-10.921-10.921 4.8893-10.921 10.921-10.921 10.921 4.8893 10.921 10.921v0z" fill="#e3e4e5" stroke-linecap="round" stroke-linejoin="round" stroke-width=".91025"/><path transform="translate(229.36 -21.088)" d="m463.94 92.479c0 6.0313-4.8893 10.921-10.921 10.921s-10.921-4.8893-10.921-10.921 4.8893-10.921 10.921-10.921 10.921 4.8893 10.921 10.921v0z" fill="#e3e4e5" stroke-linecap="round" stroke-linejoin="round" stroke-width=".91025"/><path transform="translate(115.63 -21.088)" d="m463.94 92.479c0 6.0313-4.8893 10.921-10.921 10.921s-10.921-4.8893-10.921-10.921 4.8893-10.921 10.921-10.921 10.921 4.8893 10.921 10.921v0z" fill="#e3e4e5" stroke-linecap="round" stroke-linejoin="round" stroke-width=".91025"/><path transform="translate(172.49 -56.573)" d="m463.94 92.479c0 6.0313-4.8893 10.921-10.921 10.921s-10.921-4.8893-10.921-10.921 4.8893-10.921 10.921-10.921 10.921 4.8893 10.921 10.921v0z" fill="#ed1c24" stroke-linecap="round" stroke-linejoin="round" stroke-width=".91025"/><path transform="translate(51.851 -42.793)" d="m463.94 92.479c0 6.0313-4.8893 10.921-10.921 10.921s-10.921-4.8893-10.921-10.921 4.8893-10.921 10.921-10.921 10.921 4.8893 10.921 10.921v0z" fill="#ed1c24" stroke-linecap="round" stroke-linejoin="round" stroke-width=".91025"/><path transform="matrix(-1 0 0 1 1199.2 -42.793)" d="m463.94 92.479c0 6.0313-4.8893 10.921-10.921 10.921s-10.921-4.8893-10.921-10.921 4.8893-10.921 10.921-10.921 10.921 4.8893 10.921 10.921v0z" fill="#ed1c24" stroke-linecap="round" stroke-linejoin="round" stroke-width=".91025"/><path d="m385.38 79.882c-4.1025 1.5718-7.0625 5.4717-7.0625 10.125 0 6.0282 4.9093 10.938 10.938 10.938 1.6443 0 3.1634-0.44193 4.5625-1.0938-0.01341-0.24235 0.01739-0.47605 0-0.71875-0.17168-2.3954-0.52967-4.798-1.2188-7.1875-0.34454-1.1948-0.76338-2.3828-1.2812-3.5625s-1.1545-2.3444-1.875-3.5-1.5475-2.315-2.5-3.4375c-0.45352-0.53448-1.0515-1.0371-1.5625-1.5625z" fill="#ed1c24" stroke-linecap="round" stroke-linejoin="round" stroke-width=".91025"/><path d="m865.64 79.882c4.1025 1.5718 7.0625 5.4717 7.0625 10.125 0 6.0282-4.9093 10.938-10.938 10.938-1.6443 0-3.1634-0.44193-4.5625-1.0938 0.01341-0.24235-0.01739-0.47605 0-0.71875 0.17168-2.3954 0.52967-4.798 1.2188-7.1875 0.34454-1.1948 0.76338-2.3828 1.2812-3.5625s1.1545-2.3444 1.875-3.5 1.5475-2.315 2.5-3.4375c0.45352-0.53448 1.0515-1.0371 1.5625-1.5625z" fill="#ed1c24" stroke-linecap="round" stroke-linejoin="round" stroke-width=".91025"/><path d="m596.3 148.15 29.212 16.912 29.212-16.912-29.212-16.912-29.212 16.912z" fill="#ed1c24" stroke-width=".91025px"/><path d="m429.79 168.81 0.3686 14.744 12.901 11.058 17.324-25.065-30.594-0.73721z" fill="#ed1c24" stroke-width=".91025px"/><path transform="translate(-5.5291 2.2116)" d="m488.03 153.15c0 4.784-3.8782 8.6622-8.6622 8.6622-4.784 0-8.6622-3.8782-8.6622-8.6622s3.8782-8.6622 8.6622-8.6622c4.784 0 8.6622 3.8782 8.6622 8.6622z" fill="#eac102" stroke-linecap="round" stroke-linejoin="round" stroke-width=".91025"/><path transform="translate(4.4233 23.222)" d="m488.03 153.15c0 4.784-3.8782 8.6622-8.6622 8.6622-4.784 0-8.6622-3.8782-8.6622-8.6622s3.8782-8.6622 8.6622-8.6622c4.784 0 8.6622 3.8782 8.6622 8.6622z" fill="#eac102" stroke-linecap="round" stroke-linejoin="round" stroke-width=".91025"/><path transform="matrix(.98202 .18877 -.18877 .98202 128.27 -102.11)" d="m488.03 153.15c0 4.784-3.8782 8.6622-8.6622 8.6622-4.784 0-8.6622-3.8782-8.6622-8.6622s3.8782-8.6622 8.6622-8.6622c4.784 0 8.6622 3.8782 8.6622 8.6622z" fill="#eac102" stroke-linecap="round" stroke-linejoin="round" stroke-width=".91025"/><path transform="matrix(.98202 .18877 -.18877 .98202 129.61 -77.83)" d="m488.03 153.15c0 4.784-3.8782 8.6622-8.6622 8.6622-4.784 0-8.6622-3.8782-8.6622-8.6622s3.8782-8.6622 8.6622-8.6622c4.784 0 8.6622 3.8782 8.6622 8.6622z" fill="#eac102" stroke-linecap="round" stroke-linejoin="round" stroke-width=".91025"/><rect transform="matrix(.99172 -.12839 .12839 .99172 0 0)" x="475.13" y="208.62" width="49.025" height="26.171" rx="9.5838" ry="9.5838" fill="#008f4c" stroke-linecap="round" stroke-linejoin="round" stroke-width=".91025"/><path d="m820.82 168.81-0.3686 14.744-12.901 11.058-17.324-25.065 30.594-0.73721z" fill="#ed1c24" stroke-width=".91025px"/><path transform="matrix(-1 0 0 1 1256.1 2.2116)" d="m488.03 153.15c0 4.784-3.8782 8.6622-8.6622 8.6622-4.784 0-8.6622-3.8782-8.6622-8.6622s3.8782-8.6622 8.6622-8.6622c4.784 0 8.6622 3.8782 8.6622 8.6622z" fill="#eac102" stroke-linecap="round" stroke-linejoin="round" stroke-width=".91025"/><path transform="matrix(-1 0 0 1 1246.2 23.222)" d="m488.03 153.15c0 4.784-3.8782 8.6622-8.6622 8.6622-4.784 0-8.6622-3.8782-8.6622-8.6622s3.8782-8.6622 8.6622-8.6622c4.784 0 8.6622 3.8782 8.6622 8.6622z" fill="#eac102" stroke-linecap="round" stroke-linejoin="round" stroke-width=".91025"/><path transform="matrix(-.98202 .18877 .18877 .98202 1122.3 -102.11)" d="m488.03 153.15c0 4.784-3.8782 8.6622-8.6622 8.6622-4.784 0-8.6622-3.8782-8.6622-8.6622s3.8782-8.6622 8.6622-8.6622c4.784 0 8.6622 3.8782 8.6622 8.6622z" fill="#eac102" stroke-linecap="round" stroke-linejoin="round" stroke-width=".91025"/><path transform="matrix(-.98202 .18877 .18877 .98202 1121 -77.83)" d="m488.03 153.15c0 4.784-3.8782 8.6622-8.6622 8.6622-4.784 0-8.6622-3.8782-8.6622-8.6622s3.8782-8.6622 8.6622-8.6622c4.784 0 8.6622 3.8782 8.6622 8.6622z" fill="#eac102" stroke-linecap="round" stroke-linejoin="round" stroke-width=".91025"/><rect transform="matrix(-.99172 -.12839 -.12839 .99172 0 0)" x="-765.13" y="48.063" width="49.025" height="26.171" rx="9.5838" ry="9.5838" fill="#008f4c" stroke-linecap="round" stroke-linejoin="round" stroke-width=".91025"/></g><path d="m569.7-26.094-0.46875 0.78125c-5.7869 8.9521-29.377 9.4266-30.312 21.969-1.0237 13.729 22.794 16.477 18.062 24.5-4.4678 7.5753-10.437-14.895-26.031-10.594-15.8 3.861-2.3992 20.493-16.219 29.688 12.098 6.1063 9.6956 29.633 24.812 23.594 8.7715-6.4166 18.059-15.874 24.5-8.4688 1.5232 6.8476 0.09789 14.061-2.6875 21.438-6.7459 6.0398-13.44 8.9818-19.875 9.2812-6.3433 0.29517-13.044-1.8267-20.281-7.6562 1.6005-1.9 2.5625-4.3544 2.5625-7.0312 0-6.0282-4.9093-10.937-10.938-10.938-6.0282 0-10.906 4.9093-10.906 10.938 0 2.8779 1.1162 5.4861 2.9375 7.4375-4.4832 6.428-11.241 11.958-18.031 13.312-7.4653 1.489-16.089-0.535-26.906-14.438-0.02326-0.030105-0.03886-0.064073-0.0625-0.09375-2.6377-6.0243-2.0942-11.843-1.5938-15.656 13.77-5.508 18.102 14.639 30.969 8.0938 13.797-7.0191 2.4169-22.581 16.5-30.688-9.9596-3.0425-8.9651-31.585-21.969-28.344-13.084 3.2615-13.288 28.624-25.656 22.688-8.424-5.7582 12.625-10.645 12.156-26.688-0.38581-13.189-24.635-3.5729-28.562-20.375-4.0266 15.114-29.036 13.231-25.906 29.656 2.6264 13.783 21.616 17.401 16.812 23.656-7.6642 7.7376-21.519-14.474-28.812-10.75-7.2936 3.7244-2.4496 31.301-10.281 35.781 11.44 2.9589 16.981 22.749 29.156 16.75 12.303-6.0618 10.361-20.155 21.281-16.75 0.76425 6.7754 2.6802 12.971 1.5625 20.688-3.7258 7.8213-18.005 20.228-39.062 7.2812 0.37224-1.0993 0.5625-2.2755 0.5625-3.5 0-6.0282-4.8781-10.938-10.906-10.938-6.0282 0-10.938 4.9093-10.938 10.938 0 3.9983 2.1665 7.4722 5.375 9.375-1.6406 7.9007-7.725 12.715-15.469 13.844-8.2991 1.2092-18.227-2.0268-25.594-13.938 1.1055-2.3438 2.9772-4.4023 6.25-6.0312 5.1035-1.9115 10.187 2.3972 18.75 1.8125 9.6608-1.929-2.1894-20.657 5.4375-29.906-13.531-3.2271-11.646-20.379-33.031-15.375-11.058 8.3973-1.2041 20.852-7.5312 21.594-6.288 0.73718-4.9714-15.1-13.531-21.312-8.7668-6.3631-30.409-8.9103-27.562 16.375 16.006-4.2832 22.94 4.523 28.188 15.781-2.407 1.9816-3.9375 4.9487-3.9375 8.3125-1e-5 6.0282 4.9093 10.938 10.938 10.938 0.42155 0 0.81358-0.00832 1.2188-0.0625-0.04188 1.3402 0.25444 2.7172 0.96875 3.9688 3.8766 6.7897 8.7507 12.047 14.156 15.812 3.5378 8.6312 7.4979 16.437 11.594 23.906-1.8375 0.97528-3.1252 2.7826-3.4062 4.875-0.31535 2.3482 0.68912 4.6846 2.5938 6.0938 1.9046 1.4092 4.4093 1.6759 6.5625 0.6875 0.21646-0.09141 0.43892-0.19022 0.65625-0.28125 2.4128 4.2668 4.8186 8.5521 7.125 12.906l-0.9375-0.03125 0.375 14.75 11.656 10c0.88612 2.4966 1.7221 5.0667 2.5 7.7188-2.2719 1.2328-3.8727 3.4608-4.3125 6.0625-0.52331 3.0957 0.70217 6.2066 3.1875 8.125 2.4853 1.9184 5.8253 2.3215 8.6875 1.0312 0.07339-0.0287 0.14524-0.0651 0.21875-0.09375 0.74278 0.30652 1.5213 0.50771 2.3438 0.59375 115.59 16.891 230.02 19.404 342.47-0.03125 0.752-0.11195 1.4888-0.3355 2.1563-0.625 0.1647 0.06304 0.3359 0.12422 0.5 0.1875 4.3838 1.6914 9.3086-0.49124 11-4.875 1.5465-4.0083-0.1602-8.4723-3.8125-10.5 0.8257-2.8058 1.7099-5.5234 2.6562-8.1562l11.031-9.4375 0.375-14.75h-0.5c2.3024-4.3456 4.6855-8.6162 7.0937-12.875 0.2574 0.10616 0.5252 0.20583 0.7813 0.3125 2.151 0.93219 4.6304 0.63322 6.5-0.78125s2.8434-3.739 2.5313-6.0625c-0.2807-2.0893-1.5701-3.8673-3.4063-4.8438 4.1351-7.5409 8.1557-15.426 11.719-24.156 5.2579-3.7455 10.025-8.9295 13.813-15.562 0.7814-1.2016 1.1371-2.5847 1.1562-3.9688 0.4148 0.0568 0.818 0.0625 1.25 0.0625 6.0282 0 10.938-4.9093 10.938-10.938 0-3.3638-1.5305-6.3309-3.9375-8.3125 5.2547-11.256 12.211-20.065 28.219-15.781 2.8467-25.285-18.796-22.738-27.563-16.375-8.5597 6.213-7.2433 22.05-13.531 21.312-6.3271-0.74177 3.4951-13.196-7.5625-21.594-21.385-5.0044-19.5 12.148-33.031 15.375 7.627 9.2489-4.1921 27.977 5.4688 29.906 8.5629 0.58467 13.615-3.724 18.719-1.8125 3.1881 1.5867 5.0705 3.5744 6.1874 5.8438-7.3779 12.061-17.377 15.34-25.719 14.125-7.6929-1.1209-13.807-5.879-15.5-13.688 3.3368-1.8694 5.5937-5.4369 5.5937-9.5312 0-6.0282-4.9093-10.938-10.937-10.938-6.0282 0-10.906 4.9093-10.906 10.938 0 1.1793 0.1849 2.3108 0.5313 3.375-20.59 12.791-34.711 1.3563-38.906-6.5-1.3256-8.0195 0.65197-14.38 1.4375-21.344 10.92-3.4054 8.9787 10.688 21.281 16.75 12.175 5.999 17.748-13.791 29.188-16.75-7.8316-4.4807-2.9877-32.057-10.281-35.781-7.2936-3.7244-21.148 18.488-28.812 10.75-4.8039-6.2553 14.186-9.8737 16.812-23.656 3.1301-16.426-21.88-14.542-25.906-29.656-3.9278 16.802-28.208 7.1857-28.594 20.375-0.46928 16.043 20.611 20.929 12.188 26.688-12.369 5.937-12.572-19.426-25.656-22.688-13.004-3.2414-12.009 25.301-21.969 28.344 14.083 8.106 2.703 23.668 16.5 30.688 12.866 6.5457 17.167-13.602 30.938-8.0938 0.48726 3.7133 1.0628 9.3333-1.3438 15.188-0.17585 0.185-0.37288 0.35739-0.53125 0.5625-10.817 13.903-19.441 15.926-26.906 14.438-6.7328-1.3429-13.454-6.7984-17.938-13.156 1.9033-1.9658 3.0625-4.6435 3.0625-7.5938 0-6.0282-4.8781-10.937-10.906-10.938-6.0282 0-10.938 4.9093-10.938 10.938 0 2.6283 0.95127 5.0211 2.5 6.9062-7.2909 5.9262-14.017 8.0786-20.406 7.7812-6.3575-0.29583-12.93-3.1687-19.594-9.0625-2.8318-7.4532-4.3195-14.741-2.7812-21.656 6.4408-7.4057 15.729 2.0522 24.5 8.4688 15.117 6.0394 12.715-17.487 24.812-23.594-13.82-9.195-0.44984-25.827-16.25-29.688-15.594-4.3015-21.563 18.169-26.031 10.594-4.7316-8.0225 19.117-10.771 18.094-24.5-0.93519-12.542-24.526-13.017-30.312-21.969l-0.46875-0.78125z" fill="none" stroke-width="2.7307"/></g><path d="m110.74 521.1c0.01437 8.488-0.0289 16.977 0.02195 25.464 0.27043 7.6171 6.1009 14.574 13.546 16.183 6.8879 1.678 14.599-1.3376 18.486-7.2843 2.3284-3.3258 3.1859-7.4416 2.9939-11.448v-22.915h-35.049z" fill="none"/><path d="m119.22 560.66c0.0828 0.05105 0.16242 0.1063 0.24604 0.15598-0.07879-0.05288-0.14112-0.1037-0.23725-0.15158-0.00277-0.00138-0.00602-0.00303-0.00879-0.0044z" fill="#0071bc" fill-rule="evenodd" stroke="#000" stroke-width=".070297"/><path d="m133.38 562.4c-0.00948 1.8e-4 -0.01678 0.00439-0.02636 0.0044-0.13592 0-0.2623-0.01822-0.37785-0.04834-0.11554-0.03012-0.21972-0.07311-0.31633-0.12082-0.09662-0.04771-0.1845-0.101-0.26362-0.15377-0.07912-0.05278-0.15002-0.10407-0.21309-0.14939-0.12612-0.09063-0.2211-0.15281-0.29656-0.19331s-0.13141-0.05932-0.17794-0.05932c-0.04654 0-0.10193 0.01882-0.17794 0.05932-0.076 0.0405-0.17262 0.10268-0.29876 0.19331-0.06307 0.04532-0.13396 0.09661-0.21308 0.14939-0.07913 0.05277-0.16701 0.10606-0.26362 0.15377s-0.20079 0.0907-0.31633 0.12082c-0.11555 0.03012-0.24193 0.04833-0.37785 0.04834-0.13592 0-0.26031-0.01822-0.37565-0.04834s-0.2222-0.07311-0.31853-0.12082c-0.09634-0.04771-0.18251-0.101-0.26142-0.15377-0.07892-0.05278-0.15002-0.10407-0.21309-0.14939-0.12614-0.09063-0.22275-0.15281-0.29876-0.19331s-0.1314-0.05932-0.17794-0.05932-0.10193 0.01882-0.17794 0.05932-0.17262 0.10268-0.29876 0.19331c-0.06307 0.04532-0.13417 0.09661-0.21309 0.14939-0.07891 0.05277-0.16508 0.10606-0.26142 0.15377-0.09633 0.04771-0.20318 0.0907-0.31853 0.12082-0.11534 0.03012-0.23972 0.04833-0.37565 0.04834-0.13592 0-0.2603-0.01822-0.37565-0.04834-0.11534-0.03012-0.22219-0.07311-0.31853-0.12082s-0.1825-0.101-0.26142-0.15377c-0.07891-0.05278-0.15002-0.10407-0.21309-0.14939-0.12612-0.09063-0.22275-0.15281-0.29876-0.19331-0.076-0.0405-0.1314-0.05932-0.17793-0.05932-0.04654 0-0.10194 0.01882-0.17794 0.05932s-0.17263 0.10268-0.29876 0.19331c-0.06307 0.04532-0.13397 0.09661-0.21309 0.14939-0.07912 0.05277-0.167 0.10606-0.26362 0.15377-0.09661 0.04771-0.20079 0.0907-0.31633 0.12082-0.11555 0.03012-0.24193 0.04833-0.37785 0.04834-0.13592 0-0.26031-0.01822-0.37564-0.04834-0.11535-0.03012-0.22221-0.07311-0.31854-0.12082-0.09634-0.04771-0.18251-0.101-0.26141-0.15377-0.07892-0.05278-0.15002-0.10407-0.21309-0.14939-0.12615-0.09063-0.22275-0.15281-0.29877-0.19331-0.07601-0.0405-0.1314-0.05932-0.17794-0.05932-0.04651 0-0.10192 0.01882-0.17793 0.05932-0.03801 0.02025-0.10014 0.06447-0.14939 0.09666 1.5844 0.67947 3.2665 1.1326 5.0065 1.2785 2.3143 0.2434 4.656-0.02566 6.8693-0.71395z" fill="#0071bc" fill-rule="evenodd" stroke="#000" stroke-width=".070297"/><path d="m135.17 561.74c-0.07473-0.03956-0.12972-0.05932-0.17574-0.05932-0.04654 0-0.10194 0.01882-0.17794 0.05932-0.07601 0.0405-0.17263 0.10268-0.29876 0.19331-0.06307 0.04532-0.13418 0.09661-0.21309 0.14939 0.29121-0.10833 0.58021-0.21949 0.86553-0.3427z" fill="#0071bc" fill-rule="evenodd" stroke="#000" stroke-width=".070297"/><path d="m136.43 561.14c-0.071-0.03998-0.15105-0.08985-0.26142-0.16915-0.12614-0.09063-0.28183-0.20938-0.4745-0.30535-0.09634-0.04799-0.20319-0.0905-0.31853-0.12082-0.11534-0.03033-0.23973-0.04834-0.37565-0.04834-0.13593 0-0.26031 0.01801-0.37565 0.04834-0.11534 0.03032-0.2222 0.07283-0.31854 0.12082-0.19267 0.09597-0.34836 0.21473-0.4745 0.30535-0.12614 0.09063-0.22275 0.15336-0.29876 0.19331-0.07601 0.03996-0.1314 0.05711-0.17794 0.05713-0.04653 0-0.10193-0.01717-0.17794-0.05713-0.07601-0.03995-0.17262-0.10267-0.29877-0.19331-0.12612-0.09063-0.28182-0.20938-0.4745-0.30535-0.09633-0.04799-0.20319-0.0905-0.31853-0.12082-0.11534-0.03033-0.23973-0.04834-0.37565-0.04834s-0.2623 0.01801-0.37785 0.04834c-0.11554 0.03032-0.21972 0.07283-0.31633 0.12082-0.09661 0.04798-0.18449 0.10079-0.26362 0.15377-0.07912 0.05298-0.15001 0.10626-0.21308 0.15158-0.12614 0.09063-0.22276 0.15336-0.29876 0.19331-0.07601 0.03996-0.13141 0.05711-0.17794 0.05713-0.04653 0-0.10193-0.01717-0.17794-0.05713-0.07601-0.03995-0.17262-0.10267-0.29876-0.19331-0.12614-0.09063-0.28183-0.20938-0.47451-0.30535-0.09633-0.04799-0.20319-0.0905-0.31853-0.12082-0.11534-0.03033-0.23973-0.04834-0.37565-0.04834s-0.26031 0.01801-0.37565 0.04834c-0.11534 0.03032-0.2222 0.07283-0.31853 0.12082-0.19268 0.09597-0.34837 0.21473-0.47451 0.30535-0.12614 0.09063-0.22275 0.15336-0.29876 0.19331-0.076 0.03996-0.13139 0.05711-0.17794 0.05713-0.04654 0-0.10193-0.01717-0.17794-0.05713-0.076-0.03995-0.17262-0.10267-0.29876-0.19331-0.12614-0.09063-0.28183-0.20938-0.4745-0.30535-0.09634-0.04799-0.2032-0.0905-0.31853-0.12082-0.11534-0.03033-0.23974-0.04834-0.37565-0.04834-0.13592 0-0.2623 0.01801-0.37785 0.04834-0.11555 0.03032-0.21972 0.07283-0.31634 0.12082-0.09661 0.04798-0.18449 0.10079-0.26361 0.15377s-0.15002 0.10626-0.21308 0.15158c-0.12614 0.09063-0.22276 0.15336-0.29877 0.19331-0.07601 0.03996-0.1314 0.05711-0.17794 0.05713-0.04652 0-0.10193-0.01717-0.17794-0.05713-0.07601-0.03995-0.17262-0.10267-0.29876-0.19331-0.12614-0.09063-0.28183-0.20938-0.47451-0.30535-0.09633-0.04799-0.20318-0.0905-0.31853-0.12082-0.11534-0.03033-0.23972-0.04834-0.37565-0.04834-0.13592 0-0.2603 0.01801-0.37564 0.04834-0.11535 0.03032-0.2222 0.07283-0.31854 0.12082-0.19267 0.09597-0.34836 0.21473-0.47451 0.30535-0.12613 0.09063-0.22275 0.15336-0.29876 0.19331-0.06838 0.03594-0.11667 0.04735-0.16036 0.05053 0.42517 0.22614 0.85804 0.43415 1.3005 0.62389 0.04925-0.03219 0.11138-0.07641 0.14939-0.09666 0.07601-0.0405 0.13142-0.05932 0.17793-0.05932 0.04654 0 0.10193 0.01882 0.17794 0.05932 0.07602 0.0405 0.17262 0.10268 0.29877 0.19331 0.06307 0.04532 0.13417 0.09661 0.21309 0.14939 0.0789 0.05277 0.16507 0.10606 0.26141 0.15377 0.09633 0.04771 0.20319 0.0907 0.31854 0.12082 0.11533 0.03012 0.23972 0.04834 0.37564 0.04834 0.13592-1e-5 0.2623-0.01822 0.37785-0.04834 0.11554-0.03012 0.21972-0.07311 0.31633-0.12082 0.09662-0.04771 0.1845-0.101 0.26362-0.15377 0.07912-0.05278 0.15002-0.10407 0.21309-0.14939 0.12613-0.09063 0.22276-0.15281 0.29876-0.19331s0.1314-0.05932 0.17794-0.05932c0.04653 0 0.10193 0.01882 0.17793 0.05932 0.07601 0.0405 0.17264 0.10268 0.29876 0.19331 0.06307 0.04532 0.13418 0.09661 0.21309 0.14939 0.07892 0.05277 0.16508 0.10606 0.26142 0.15377s0.20319 0.0907 0.31853 0.12082c0.11535 0.03012 0.23973 0.04834 0.37565 0.04834 0.13593-1e-5 0.26031-0.01822 0.37565-0.04834 0.11535-0.03012 0.2222-0.07311 0.31853-0.12082 0.09634-0.04771 0.18251-0.101 0.26142-0.15377 0.07892-0.05278 0.15002-0.10407 0.21309-0.14939 0.12614-0.09063 0.22275-0.15281 0.29876-0.19331s0.1314-0.05932 0.17794-0.05932 0.10193 0.01882 0.17794 0.05932 0.17262 0.10268 0.29876 0.19331c0.06307 0.04532 0.13417 0.09661 0.21309 0.14939 0.07891 0.05277 0.16508 0.10606 0.26142 0.15377 0.09633 0.04771 0.20319 0.0907 0.31853 0.12082s0.23973 0.04834 0.37565 0.04834c0.13592-1e-5 0.2623-0.01822 0.37785-0.04834 0.11554-0.03012 0.21972-0.07311 0.31633-0.12082s0.18449-0.101 0.26362-0.15377c0.07912-0.05278 0.15001-0.10407 0.21308-0.14939 0.12614-0.09063 0.22276-0.15281 0.29876-0.19331 0.07601-0.0405 0.1314-0.05932 0.17794-0.05932 0.04653 0 0.10248 0.01882 0.17794 0.05932s0.17044 0.10268 0.29656 0.19331c0.06307 0.04532 0.13397 0.09661 0.21309 0.14939 0.07912 0.05277 0.167 0.10606 0.26362 0.15377 0.09661 0.04771 0.20079 0.0907 0.31633 0.12082 0.11555 0.03012 0.24193 0.04834 0.37785 0.04834 0.00958-1e-5 0.01688-0.00422 0.02636-0.0044 0.31066-0.09661 0.61758-0.20082 0.92265-0.31414 0.00241-8.9e-4 0.00418-0.00349 0.00659-0.00439 0.07891-0.05278 0.15002-0.10407 0.21309-0.14939 0.12613-0.09063 0.22275-0.15281 0.29876-0.19331 0.076-0.0405 0.1314-0.05932 0.17794-0.05932 0.04602 0 0.10101 0.01976 0.17574 0.05932 6.1e-4 -2.7e-4 0.00158 2.7e-4 0.0022 0 0.42539-0.18375 0.84203-0.38605 1.2522-0.60192z" fill="#e3e4e5" fill-rule="evenodd" stroke="#000" stroke-width=".070297"/><path d="m138.91 559.56c-0.05026-0.03533-0.10206-0.0724-0.14499-0.10325-0.12614-0.09062-0.22275-0.15336-0.29876-0.19332-0.07601-0.03994-0.1314-0.05712-0.17794-0.0571-0.04653 0-0.10193 0.01716-0.17794 0.0571-0.07601 0.03996-0.17262 0.1027-0.29876 0.19332-0.12614 0.09064-0.28183 0.20939-0.4745 0.30536-0.09634 0.04798-0.2032 0.0905-0.31854 0.12082s-0.23972 0.04833-0.37565 0.04833c-0.13592 0-0.26031-0.01801-0.37565-0.04833s-0.22219-0.07284-0.31853-0.12082c-0.19267-0.09597-0.34836-0.21472-0.4745-0.30536-0.12614-0.09062-0.22276-0.15336-0.29876-0.19332-0.07601-0.03994-0.13141-0.05712-0.17794-0.0571-0.04654 0-0.10194 0.01716-0.17794 0.0571-0.07601 0.03996-0.17263 0.1027-0.29876 0.19332-0.12614 0.09064-0.28183 0.20939-0.47451 0.30536-0.09634 0.04798-0.20319 0.0905-0.31854 0.12082-0.11533 0.03032-0.23972 0.04833-0.37564 0.04833s-0.2623-0.01801-0.37785-0.04833c-0.11554-0.03032-0.21972-0.07284-0.31633-0.12082-0.09662-0.04799-0.1845-0.10079-0.26362-0.15378-0.07912-0.05298-0.15002-0.10626-0.21309-0.15158-0.12612-0.09062-0.2211-0.15336-0.29656-0.19332-0.07546-0.03994-0.13141-0.05712-0.17794-0.0571-0.04654 0-0.10193 0.01716-0.17794 0.0571-0.076 0.03996-0.17262 0.1027-0.29876 0.19332-0.06307 0.04532-0.13396 0.0986-0.21308 0.15158-0.07913 0.05299-0.16701 0.10579-0.26362 0.15378-0.09661 0.04798-0.20079 0.0905-0.31633 0.12082-0.11555 0.03032-0.24193 0.04833-0.37785 0.04833s-0.26031-0.01801-0.37565-0.04833-0.2222-0.07284-0.31853-0.12082c-0.19268-0.09597-0.34837-0.21472-0.47451-0.30536-0.12614-0.09062-0.22275-0.15336-0.29876-0.19332-0.07601-0.03994-0.1314-0.05712-0.17794-0.0571-0.04654 0-0.10193 0.01716-0.17794 0.0571-0.07601 0.03996-0.17262 0.1027-0.29876 0.19332-0.12614 0.09064-0.28183 0.20939-0.47451 0.30536-0.09633 0.04798-0.20318 0.0905-0.31853 0.12082-0.11534 0.03032-0.23972 0.04833-0.37565 0.04833-0.13592 0-0.2603-0.01801-0.37565-0.04833-0.11534-0.03032-0.22219-0.07284-0.31853-0.12082-0.19268-0.09597-0.34837-0.21472-0.47451-0.30536-0.12612-0.09062-0.22275-0.15336-0.29876-0.19332-0.076-0.03994-0.1314-0.05712-0.17793-0.0571-0.04654 0-0.10194 0.01716-0.17794 0.0571-0.076 0.03996-0.17263 0.1027-0.29876 0.19332-0.06307 0.04532-0.13397 0.0986-0.21309 0.15158-0.07912 0.05299-0.167 0.10579-0.26362 0.15378-0.09661 0.04798-0.20079 0.0905-0.31633 0.12082-0.11555 0.03032-0.24193 0.04833-0.37785 0.04833s-0.26031-0.01801-0.37564-0.04833c-0.11535-0.03032-0.22221-0.07284-0.31854-0.12082-0.19268-0.09597-0.34836-0.21472-0.4745-0.30536-0.12615-0.09062-0.22275-0.15336-0.29877-0.19332-0.07601-0.03994-0.1314-0.05712-0.17794-0.0571-0.04651 0-0.10192 0.01716-0.17793 0.0571-0.07602 0.03996-0.17263 0.1027-0.29877 0.19332-0.12614 0.09064-0.28182 0.20939-0.4745 0.30536-0.09634 0.04798-0.20319 0.0905-0.31853 0.12082s-0.23973 0.04833-0.37565 0.04833-0.26031-0.01801-0.37566-0.04833c-0.11533-0.03032-0.22219-0.07284-0.31853-0.12082-0.19267-0.09597-0.34836-0.21472-0.4745-0.30536-0.12614-0.09062-0.22275-0.15336-0.29876-0.19332-0.07601-0.03994-0.13142-0.05712-0.17794-0.0571-0.04654 0-0.10193 0.01716-0.17794 0.0571-0.076 0.03996-0.17262 0.1027-0.29876 0.19332-0.07955 0.05716-0.19368 0.1266-0.29876 0.19332 0.4717 0.3594 0.95658 0.69742 1.4609 1.0083 0.00277 0.00137 0.00602 0.00302 0.00879 0.0044 0.09613 0.04788 0.15846 0.0987 0.23725 0.15158 0.23862 0.14176 0.48657 0.26733 0.73152 0.39761 0.04369-0.00318 0.09198-0.01459 0.16036-0.05053 0.07601-0.03995 0.17263-0.10268 0.29876-0.19331 0.12615-0.09062 0.28184-0.20938 0.47451-0.30535 0.09634-0.04799 0.20319-0.0905 0.31854-0.12082 0.11534-0.03033 0.23972-0.04834 0.37564-0.04834 0.13593 0 0.26031 0.01801 0.37565 0.04834 0.11535 0.03032 0.2222 0.07283 0.31853 0.12082 0.19268 0.09597 0.34837 0.21472 0.47451 0.30535 0.12614 0.09064 0.22275 0.15336 0.29876 0.19331 0.07601 0.03996 0.13142 0.05713 0.17794 0.05713 0.04654-2e-5 0.10193-0.01717 0.17794-0.05713 0.07601-0.03995 0.17263-0.10268 0.29877-0.19331 0.06306-0.04532 0.13396-0.0986 0.21308-0.15158s0.167-0.10579 0.26361-0.15377c0.09662-0.04799 0.20079-0.0905 0.31634-0.12082 0.11555-0.03033 0.24193-0.04834 0.37785-0.04834 0.13591 0 0.26031 0.01801 0.37565 0.04834 0.11533 0.03032 0.22219 0.07283 0.31853 0.12082 0.19267 0.09597 0.34836 0.21472 0.4745 0.30535 0.12614 0.09064 0.22276 0.15336 0.29876 0.19331 0.07601 0.03996 0.1314 0.05713 0.17794 0.05713 0.04655-2e-5 0.10194-0.01717 0.17794-0.05713 0.07601-0.03995 0.17262-0.10268 0.29876-0.19331 0.12614-0.09062 0.28183-0.20938 0.47451-0.30535 0.09633-0.04799 0.20319-0.0905 0.31853-0.12082 0.11534-0.03033 0.23973-0.04834 0.37565-0.04834s0.26031 0.01801 0.37565 0.04834c0.11534 0.03032 0.2222 0.07283 0.31853 0.12082 0.19268 0.09597 0.34837 0.21472 0.47451 0.30535 0.12614 0.09064 0.22275 0.15336 0.29876 0.19331 0.07601 0.03996 0.13141 0.05713 0.17794 0.05713 0.04653-2e-5 0.10193-0.01717 0.17794-0.05713 0.076-0.03995 0.17262-0.10268 0.29876-0.19331 0.06307-0.04532 0.13396-0.0986 0.21308-0.15158 0.07913-0.05298 0.16701-0.10579 0.26362-0.15377 0.09661-0.04799 0.20079-0.0905 0.31633-0.12082 0.11555-0.03033 0.24193-0.04834 0.37785-0.04834s0.26031 0.01801 0.37565 0.04834c0.11534 0.03032 0.2222 0.07283 0.31853 0.12082 0.19268 0.09597 0.34838 0.21472 0.4745 0.30535 0.12615 0.09064 0.22276 0.15336 0.29877 0.19331 0.07601 0.03996 0.13141 0.05713 0.17794 0.05713 0.04654-2e-5 0.10193-0.01717 0.17794-0.05713 0.07601-0.03995 0.17262-0.10268 0.29876-0.19331 0.12614-0.09062 0.28183-0.20938 0.4745-0.30535 0.09634-0.04799 0.2032-0.0905 0.31854-0.12082 0.11534-0.03033 0.23972-0.04834 0.37565-0.04834 0.13592 0 0.26031 0.01801 0.37565 0.04834 0.11534 0.03032 0.22219 0.07283 0.31853 0.12082 0.19267 0.09597 0.34836 0.21472 0.4745 0.30535 0.11037 0.0793 0.19042 0.12917 0.26142 0.16915 0.86835-0.45704 1.7003-0.98439 2.4824-1.5773z" fill="#0071bc" fill-rule="evenodd" stroke="#000" stroke-width=".070297"/><path d="m139.92 558.74c-0.04369-0.00326-0.09196-0.01628-0.16036-0.05272-0.07601-0.0405-0.17263-0.10269-0.29877-0.19332-0.06307-0.04532-0.13396-0.0986-0.21308-0.15158s-0.167-0.10579-0.26362-0.15377c-0.09661-0.04799-0.20079-0.0905-0.31633-0.12083-0.11555-0.03032-0.24193-0.04833-0.37785-0.04833s-0.26031 0.01801-0.37565 0.04833c-0.11534 0.03033-0.22219 0.07284-0.31853 0.12083-0.19268 0.09596-0.34837 0.21472-0.47451 0.30535-0.12613 0.09063-0.22275 0.15282-0.29876 0.19332-0.07601 0.04049-0.13141 0.05931-0.17794 0.05931s-0.10193-0.01882-0.17794-0.05931c-0.076-0.0405-0.17262-0.10269-0.29876-0.19332s-0.28183-0.20939-0.4745-0.30535c-0.09634-0.04799-0.20319-0.0905-0.31853-0.12083-0.11535-0.03032-0.23973-0.04833-0.37565-0.04833-0.13593 0-0.26031 0.01801-0.37565 0.04833-0.11534 0.03033-0.2222 0.07284-0.31854 0.12083-0.19267 0.09596-0.34836 0.21472-0.4745 0.30535s-0.22275 0.15282-0.29876 0.19332c-0.07601 0.04049-0.1314 0.05931-0.17794 0.05931-0.04653 0-0.10193-0.01882-0.17794-0.05931-0.07601-0.0405-0.17262-0.10269-0.29877-0.19332-0.12612-0.09063-0.28182-0.20939-0.4745-0.30535-0.09633-0.04799-0.20319-0.0905-0.31853-0.12083-0.11534-0.03032-0.23972-0.04833-0.37565-0.04833-0.13592 0-0.2623 0.01801-0.37785 0.04833-0.11554 0.03033-0.21972 0.07284-0.31633 0.12083-0.09661 0.04798-0.18449 0.10079-0.26362 0.15377-0.07912 0.05298-0.15001 0.10626-0.21308 0.15158-0.12614 0.09063-0.22276 0.15282-0.29876 0.19332-0.07601 0.04049-0.13141 0.05931-0.17794 0.05931s-0.10193-0.01882-0.17794-0.05931c-0.07601-0.0405-0.17262-0.10269-0.29876-0.19332s-0.28183-0.20939-0.47451-0.30535c-0.09633-0.04799-0.20319-0.0905-0.31853-0.12083-0.11534-0.03032-0.23973-0.04833-0.37565-0.04833s-0.26031 0.01801-0.37565 0.04833c-0.11534 0.03033-0.2222 0.07284-0.31853 0.12083-0.19268 0.09596-0.34837 0.21472-0.47451 0.30535s-0.22275 0.15282-0.29876 0.19332c-0.076 0.04049-0.1314 0.05931-0.17794 0.05931-0.04653 0-0.10193-0.01882-0.17794-0.05931-0.076-0.0405-0.17262-0.10269-0.29876-0.19332s-0.28183-0.20939-0.4745-0.30535c-0.09634-0.04799-0.2032-0.0905-0.31853-0.12083-0.11534-0.03032-0.23974-0.04833-0.37565-0.04833-0.13592 0-0.2623 0.01801-0.37785 0.04833-0.11555 0.03033-0.21972 0.07284-0.31634 0.12083-0.09661 0.04798-0.18449 0.10079-0.26361 0.15377s-0.15002 0.10626-0.21308 0.15158c-0.12614 0.09063-0.22276 0.15282-0.29877 0.19332-0.07601 0.04049-0.1314 0.05931-0.17794 0.05931-0.04652 0-0.10193-0.01882-0.17794-0.05931-0.07601-0.0405-0.17262-0.10269-0.29876-0.19332s-0.28183-0.20939-0.47451-0.30535c-0.09633-0.04799-0.20318-0.0905-0.31853-0.12083-0.11534-0.03032-0.23972-0.04833-0.37565-0.04833-0.13592 0-0.2603 0.01801-0.37564 0.04833-0.11535 0.03033-0.2222 0.07284-0.31854 0.12083-0.19267 0.09596-0.34836 0.21472-0.47451 0.30535-0.12613 0.09063-0.22275 0.15282-0.29876 0.19332-0.076 0.04049-0.1314 0.05931-0.17793 0.05931s-0.10193-0.01882-0.17794-0.05931c-0.07601-0.0405-0.17263-0.10269-0.29876-0.19332-0.12614-0.09063-0.28183-0.20939-0.4745-0.30535-0.09635-0.04799-0.2032-0.0905-0.31854-0.12083-0.11534-0.03032-0.23973-0.04833-0.37565-0.04833s-0.2623 0.01801-0.37784 0.04833c-0.11555 0.03033-0.21973 0.07284-0.31634 0.12083-0.09662 0.04798-0.18449 0.10079-0.26361 0.15377-0.07913 0.05298-0.15002 0.10626-0.21309 0.15158-0.12614 0.09063-0.22111 0.15282-0.29657 0.19332-0.07546 0.04049-0.13142 0.05931-0.17794 0.05931-0.04653 0-0.10193-0.01882-0.17794-0.05931-0.07601-0.0405-0.17261-0.10269-0.29876-0.19332-0.0319-0.02292-0.07172-0.0512-0.10764-0.07689 0.46359 0.43637 0.94818 0.849 1.4543 1.2346 0.10508-0.06672 0.21921-0.13616 0.29876-0.19332 0.12614-0.09062 0.22276-0.15336 0.29876-0.19332 0.07601-0.03994 0.1314-0.0571 0.17794-0.0571 0.04652-2e-5 0.10193 0.01716 0.17794 0.0571 0.07601 0.03996 0.17262 0.1027 0.29876 0.19332 0.12614 0.09064 0.28183 0.20939 0.4745 0.30536 0.09634 0.04798 0.2032 0.0905 0.31853 0.12082 0.11535 0.03032 0.23974 0.04833 0.37566 0.04833s0.26031-0.01801 0.37565-0.04833 0.22219-0.07284 0.31853-0.12082c0.19268-0.09597 0.34836-0.21472 0.4745-0.30536 0.12614-0.09062 0.22275-0.15336 0.29877-0.19332 0.07601-0.03994 0.13142-0.0571 0.17793-0.0571 0.04654-2e-5 0.10193 0.01716 0.17794 0.0571 0.07602 0.03996 0.17262 0.1027 0.29877 0.19332 0.12614 0.09064 0.28182 0.20939 0.4745 0.30536 0.09633 0.04798 0.20319 0.0905 0.31854 0.12082 0.11533 0.03032 0.23972 0.04833 0.37564 0.04833s0.2623-0.01801 0.37785-0.04833c0.11554-0.03032 0.21972-0.07284 0.31633-0.12082 0.09662-0.04799 0.1845-0.10079 0.26362-0.15378 0.07912-0.05298 0.15002-0.10626 0.21309-0.15158 0.12613-0.09062 0.22276-0.15336 0.29876-0.19332 0.076-0.03994 0.1314-0.0571 0.17794-0.0571 0.04653-2e-5 0.10193 0.01716 0.17793 0.0571 0.07601 0.03996 0.17264 0.1027 0.29876 0.19332 0.12614 0.09064 0.28183 0.20939 0.47451 0.30536 0.09634 0.04798 0.20319 0.0905 0.31853 0.12082 0.11535 0.03032 0.23973 0.04833 0.37565 0.04833 0.13593 0 0.26031-0.01801 0.37565-0.04833 0.11535-0.03032 0.2222-0.07284 0.31853-0.12082 0.19268-0.09597 0.34837-0.21472 0.47451-0.30536 0.12614-0.09062 0.22275-0.15336 0.29876-0.19332 0.07601-0.03994 0.1314-0.0571 0.17794-0.0571 0.04654-2e-5 0.10193 0.01716 0.17794 0.0571 0.07601 0.03996 0.17262 0.1027 0.29876 0.19332 0.12614 0.09064 0.28183 0.20939 0.47451 0.30536 0.09633 0.04798 0.20319 0.0905 0.31853 0.12082s0.23973 0.04833 0.37565 0.04833 0.2623-0.01801 0.37785-0.04833c0.11554-0.03032 0.21972-0.07284 0.31633-0.12082 0.09661-0.04799 0.18449-0.10079 0.26362-0.15378 0.07912-0.05298 0.15001-0.10626 0.21308-0.15158 0.12614-0.09062 0.22276-0.15336 0.29876-0.19332 0.07601-0.03994 0.1314-0.0571 0.17794-0.0571 0.04653-2e-5 0.10248 0.01716 0.17794 0.0571 0.07546 0.03996 0.17044 0.1027 0.29656 0.19332 0.06307 0.04532 0.13397 0.0986 0.21309 0.15158 0.07912 0.05299 0.167 0.10579 0.26362 0.15378 0.09661 0.04798 0.20079 0.0905 0.31633 0.12082 0.11555 0.03032 0.24193 0.04833 0.37785 0.04833s0.26031-0.01801 0.37564-0.04833c0.11535-0.03032 0.2222-0.07284 0.31854-0.12082 0.19268-0.09597 0.34837-0.21472 0.47451-0.30536 0.12613-0.09062 0.22275-0.15336 0.29876-0.19332 0.076-0.03994 0.1314-0.0571 0.17794-0.0571 0.04653-2e-5 0.10193 0.01716 0.17794 0.0571 0.076 0.03996 0.17262 0.1027 0.29876 0.19332 0.12614 0.09064 0.28183 0.20939 0.4745 0.30536 0.09634 0.04798 0.20319 0.0905 0.31853 0.12082s0.23973 0.04833 0.37565 0.04833c0.13593 0 0.26031-0.01801 0.37565-0.04833s0.2222-0.07284 0.31854-0.12082c0.19267-0.09597 0.34836-0.21472 0.4745-0.30536 0.12614-0.09062 0.22275-0.15336 0.29876-0.19332 0.07601-0.03994 0.13141-0.0571 0.17794-0.0571 0.04654-2e-5 0.10193 0.01716 0.17794 0.0571 0.07601 0.03996 0.17262 0.1027 0.29876 0.19332 0.04293 0.03085 0.09473 0.06792 0.14499 0.10325 0.34566-0.26205 0.68295-0.53456 1.0083-0.82159z" fill="#e3e4e5" fill-rule="evenodd" stroke="#000" stroke-width=".070297"/><path d="m141.79 556.81c-0.00824-0.00465-0.02295-0.01561-0.03076-0.01977-0.07601-0.0405-0.1314-0.05932-0.17794-0.05932-0.04653 0-0.10193 0.01882-0.17794 0.05932-0.076 0.04049-0.17262 0.10268-0.29876 0.19331-0.06307 0.04532-0.13417 0.09661-0.21309 0.14938-0.07891 0.05278-0.16508 0.10607-0.26141 0.15378-0.09634 0.04771-0.20319 0.0907-0.31854 0.12082-0.11534 0.03012-0.23972 0.04833-0.37564 0.04833-0.13593 0-0.2623-0.01821-0.37785-0.04833s-0.21972-0.07311-0.31634-0.12082c-0.09661-0.04771-0.18449-0.101-0.26361-0.15378-0.07912-0.05277-0.15002-0.10406-0.21309-0.14938-0.12614-0.09063-0.22275-0.15282-0.29876-0.19331-0.07601-0.0405-0.1314-0.05932-0.17794-0.05932-0.04653 0-0.10193 0.01882-0.17794 0.05932-0.07601 0.04049-0.17262 0.10268-0.29876 0.19331-0.06307 0.04532-0.13417 0.09661-0.21309 0.14938-0.07891 0.05278-0.16508 0.10607-0.26141 0.15378-0.09634 0.04771-0.2032 0.0907-0.31854 0.12082s-0.23972 0.04833-0.37565 0.04833c-0.13592 0-0.26031-0.01821-0.37565-0.04833s-0.22219-0.07311-0.31853-0.12082-0.1825-0.101-0.26142-0.15378c-0.07891-0.05277-0.15001-0.10406-0.21308-0.14938-0.12614-0.09063-0.22276-0.15282-0.29876-0.19331-0.07601-0.0405-0.13141-0.05932-0.17794-0.05932-0.04654 0-0.10194 0.01882-0.17794 0.05932-0.07601 0.04049-0.17263 0.10268-0.29876 0.19331-0.06307 0.04532-0.13418 0.09661-0.21309 0.14938-0.07892 0.05278-0.16508 0.10607-0.26142 0.15378s-0.20319 0.0907-0.31854 0.12082c-0.11533 0.03012-0.23972 0.04833-0.37564 0.04833s-0.2623-0.01821-0.37785-0.04833c-0.11554-0.03012-0.21972-0.07311-0.31633-0.12082-0.09662-0.04771-0.1845-0.101-0.26362-0.15378-0.07912-0.05277-0.15002-0.10406-0.21309-0.14938-0.12612-0.09063-0.2211-0.15282-0.29656-0.19331-0.07546-0.0405-0.13141-0.05932-0.17794-0.05932-0.04654 0-0.10193 0.01882-0.17794 0.05932-0.076 0.04049-0.17262 0.10268-0.29876 0.19331-0.06307 0.04532-0.13396 0.09661-0.21308 0.14938-0.07913 0.05278-0.16701 0.10607-0.26362 0.15378s-0.20079 0.0907-0.31633 0.12082c-0.11555 0.03012-0.24193 0.04833-0.37785 0.04833s-0.26031-0.01821-0.37565-0.04833-0.2222-0.07311-0.31853-0.12082c-0.09634-0.04771-0.18251-0.101-0.26142-0.15378-0.07892-0.05277-0.15002-0.10406-0.21309-0.14938-0.12614-0.09063-0.22275-0.15282-0.29876-0.19331-0.07601-0.0405-0.1314-0.05932-0.17794-0.05932s-0.10193 0.01882-0.17794 0.05932c-0.07601 0.04049-0.17262 0.10268-0.29876 0.19331-0.06307 0.04532-0.13417 0.09661-0.21309 0.14938-0.07891 0.05278-0.16508 0.10607-0.26142 0.15378-0.09633 0.04771-0.20318 0.0907-0.31853 0.12082-0.11534 0.03012-0.23972 0.04833-0.37565 0.04833-0.13592 0-0.2603-0.01821-0.37565-0.04833-0.11534-0.03012-0.22219-0.07311-0.31853-0.12082s-0.1825-0.101-0.26142-0.15378c-0.07891-0.05277-0.15002-0.10406-0.21309-0.14938-0.12612-0.09063-0.22275-0.15282-0.29876-0.19331-0.076-0.0405-0.1314-0.05932-0.17793-0.05932-0.04654 0-0.10194 0.01882-0.17794 0.05932-0.076 0.04049-0.17263 0.10268-0.29876 0.19331-0.06307 0.04532-0.13397 0.09661-0.21309 0.14938-0.07912 0.05278-0.167 0.10607-0.26362 0.15378-0.09661 0.04771-0.20079 0.0907-0.31633 0.12082-0.11555 0.03012-0.24193 0.04833-0.37785 0.04833s-0.26031-0.01821-0.37564-0.04833c-0.11535-0.03012-0.22221-0.07311-0.31854-0.12082-0.09634-0.04771-0.18251-0.101-0.26141-0.15378-0.07892-0.05277-0.15002-0.10406-0.21309-0.14938-0.12615-0.09063-0.22275-0.15282-0.29877-0.19331-0.07601-0.0405-0.1314-0.05932-0.17794-0.05932-0.04651 0-0.10192 0.01882-0.17793 0.05932-0.07602 0.04049-0.17263 0.10268-0.29877 0.19331-0.06307 0.04532-0.13417 0.09661-0.21308 0.14938-0.07892 0.05278-0.16509 0.10607-0.26142 0.15378-0.09634 0.04771-0.20319 0.0907-0.31853 0.12082s-0.23973 0.04833-0.37565 0.04833-0.26031-0.01821-0.37566-0.04833c-0.11533-0.03012-0.22219-0.07311-0.31853-0.12082-0.09633-0.04771-0.1825-0.101-0.26142-0.15378-0.0789-0.05277-0.15001-0.10406-0.21308-0.14938-0.12614-0.09063-0.22275-0.15282-0.29876-0.19331-0.07601-0.0405-0.13142-0.05932-0.17794-0.05932-0.04654 0-0.10193 0.01882-0.17794 0.05932-0.076 0.04049-0.17262 0.10268-0.29876 0.19331-0.06307 0.04532-0.13418 0.09661-0.21309 0.14938-0.07891 0.05278-0.16508 0.10607-0.26142 0.15378-0.09633 0.04771-0.20319 0.0907-0.31853 0.12082s-0.23973 0.04833-0.37565 0.04833-0.2623-0.01821-0.37784-0.04833c-0.11555-0.03012-0.21973-0.07311-0.31634-0.12082s-0.18449-0.101-0.26361-0.15378c-0.07912-0.05277-0.15002-0.10406-0.21309-0.14938-0.12614-0.09063-0.22275-0.15282-0.29877-0.19331-0.076-0.0405-0.1314-0.05932-0.17793-0.05932-0.04652 0-0.10193 0.01882-0.17794 0.05932-0.05024 0.02676-0.1271 0.07945-0.19771 0.12741 0.44779 0.52855 0.93438 1.0233 1.4389 1.4982 0.03592 0.02569 0.07574 0.05397 0.10764 0.07689 0.12615 0.09063 0.22275 0.15282 0.29876 0.19332 0.07601 0.04049 0.13141 0.05931 0.17794 0.05931 0.04652 0 0.10248-0.01882 0.17794-0.05931 0.07546-0.0405 0.17043-0.10269 0.29657-0.19332 0.06307-0.04532 0.13396-0.0986 0.21309-0.15158 0.07912-0.05298 0.16699-0.10579 0.26361-0.15377 0.09661-0.04799 0.20079-0.0905 0.31634-0.12083 0.11554-0.03032 0.24192-0.04833 0.37784-0.04833s0.26031 0.01801 0.37565 0.04833c0.11534 0.03033 0.22219 0.07284 0.31854 0.12083 0.19267 0.09596 0.34836 0.21472 0.4745 0.30535 0.12613 0.09063 0.22275 0.15282 0.29876 0.19332 0.07601 0.04049 0.13141 0.05931 0.17794 0.05931s0.10193-0.01882 0.17793-0.05931c0.07601-0.0405 0.17263-0.10269 0.29876-0.19332 0.12615-0.09063 0.28184-0.20939 0.47451-0.30535 0.09634-0.04799 0.20319-0.0905 0.31854-0.12083 0.11534-0.03032 0.23972-0.04833 0.37564-0.04833 0.13593 0 0.26031 0.01801 0.37565 0.04833 0.11535 0.03033 0.2222 0.07284 0.31853 0.12083 0.19268 0.09596 0.34837 0.21472 0.47451 0.30535s0.22275 0.15282 0.29876 0.19332c0.07601 0.04049 0.13142 0.05931 0.17794 0.05931 0.04654 0 0.10193-0.01882 0.17794-0.05931 0.07601-0.0405 0.17263-0.10269 0.29877-0.19332 0.06306-0.04532 0.13396-0.0986 0.21308-0.15158s0.167-0.10579 0.26361-0.15377c0.09662-0.04799 0.20079-0.0905 0.31634-0.12083 0.11555-0.03032 0.24193-0.04833 0.37785-0.04833 0.13591 0 0.26031 0.01801 0.37565 0.04833 0.11533 0.03033 0.22219 0.07284 0.31853 0.12083 0.19267 0.09596 0.34836 0.21472 0.4745 0.30535s0.22276 0.15282 0.29876 0.19332c0.07601 0.04049 0.13141 0.05931 0.17794 0.05931 0.04654 0 0.10194-0.01882 0.17794-0.05931 0.07601-0.0405 0.17262-0.10269 0.29876-0.19332s0.28183-0.20939 0.47451-0.30535c0.09633-0.04799 0.20319-0.0905 0.31853-0.12083 0.11534-0.03032 0.23973-0.04833 0.37565-0.04833s0.26031 0.01801 0.37565 0.04833c0.11534 0.03033 0.2222 0.07284 0.31853 0.12083 0.19268 0.09596 0.34837 0.21472 0.47451 0.30535s0.22275 0.15282 0.29876 0.19332c0.07601 0.04049 0.13141 0.05931 0.17794 0.05931s0.10193-0.01882 0.17794-0.05931c0.076-0.0405 0.17262-0.10269 0.29876-0.19332 0.06307-0.04532 0.13396-0.0986 0.21308-0.15158 0.07913-0.05298 0.16701-0.10579 0.26362-0.15377 0.09661-0.04799 0.20079-0.0905 0.31633-0.12083 0.11555-0.03032 0.24193-0.04833 0.37785-0.04833 0.13593 0 0.26031 0.01801 0.37565 0.04833 0.11534 0.03033 0.2222 0.07284 0.31853 0.12083 0.19268 0.09596 0.34838 0.21472 0.4745 0.30535 0.12615 0.09063 0.22276 0.15282 0.29877 0.19332 0.07601 0.04049 0.13141 0.05931 0.17794 0.05931 0.04654 0 0.10193-0.01882 0.17794-0.05931 0.07601-0.0405 0.17262-0.10269 0.29876-0.19332s0.28183-0.20939 0.4745-0.30535c0.09634-0.04799 0.2032-0.0905 0.31854-0.12083 0.11534-0.03032 0.23972-0.04833 0.37565-0.04833 0.13592 0 0.2603 0.01801 0.37565 0.04833 0.11534 0.03033 0.22219 0.07284 0.31853 0.12083 0.19267 0.09596 0.34836 0.21472 0.4745 0.30535s0.22276 0.15282 0.29876 0.19332c0.07601 0.04049 0.13141 0.05931 0.17794 0.05931s0.10193-0.01882 0.17794-0.05931c0.07601-0.0405 0.17263-0.10269 0.29876-0.19332 0.12614-0.09063 0.28183-0.20939 0.47451-0.30535 0.09634-0.04799 0.20319-0.0905 0.31853-0.12083 0.11534-0.03032 0.23973-0.04833 0.37565-0.04833s0.2623 0.01801 0.37785 0.04833c0.11554 0.03033 0.21972 0.07284 0.31633 0.12083 0.09662 0.04798 0.1845 0.10079 0.26362 0.15377s0.15001 0.10626 0.21308 0.15158c0.12614 0.09063 0.22276 0.15282 0.29877 0.19332 0.0684 0.03644 0.11667 0.04946 0.16036 0.05272 0.6721-0.59291 1.2998-1.2354 1.8717-1.9288z" fill="#0071bc" fill-rule="evenodd" stroke="#000" stroke-width=".070297"/><path d="m110.75 542.44c0.01255 1.6452 0.02366 3.2893 0.05272 4.934 0.2573 3.1383 1.4742 6.1069 3.3303 8.6114 0.11693-0.08465 0.24685-0.18196 0.41519-0.26581 0.09633-0.04798 0.20319-0.0905 0.31853-0.12082s0.23973-0.04833 0.37565-0.04833 0.2623 0.01801 0.37784 0.04833c0.11555 0.03032 0.21973 0.07284 0.31634 0.12082 0.09661 0.04799 0.18449 0.1008 0.26361 0.15378s0.15002 0.10626 0.21309 0.15158c0.12615 0.09063 0.22275 0.15336 0.29876 0.19331s0.13141 0.05712 0.17794 0.05712c0.04652 0 0.10248-0.01717 0.17794-0.05712s0.17043-0.10268 0.29657-0.19331c0.06307-0.04532 0.13396-0.0986 0.21309-0.15158 0.07912-0.05298 0.16699-0.10579 0.26361-0.15378 0.09661-0.04798 0.20079-0.0905 0.31634-0.12082 0.11554-0.03032 0.24192-0.04833 0.37784-0.04833s0.26031 0.01801 0.37565 0.04833 0.22219 0.07284 0.31854 0.12082c0.19267 0.09597 0.34836 0.21472 0.4745 0.30536 0.12613 0.09063 0.22275 0.15336 0.29876 0.19331s0.13141 0.05712 0.17794 0.05712 0.10193-0.01717 0.17793-0.05712c0.07601-0.03995 0.17263-0.10268 0.29876-0.19331 0.12615-0.09064 0.28184-0.20939 0.47451-0.30536 0.09634-0.04798 0.20319-0.0905 0.31854-0.12082 0.11534-0.03032 0.23972-0.04833 0.37564-0.04833 0.13593 0 0.26031 0.01801 0.37565 0.04833 0.11535 0.03032 0.2222 0.07284 0.31853 0.12082 0.19268 0.09597 0.34837 0.21472 0.47451 0.30536 0.12614 0.09063 0.22275 0.15336 0.29876 0.19331s0.13142 0.05712 0.17794 0.05712c0.04654 0 0.10193-0.01717 0.17794-0.05712s0.17263-0.10268 0.29877-0.19331c0.06306-0.04532 0.13396-0.0986 0.21308-0.15158s0.167-0.10579 0.26361-0.15378c0.09662-0.04798 0.20079-0.0905 0.31634-0.12082s0.24193-0.04833 0.37785-0.04833c0.13591 0 0.26031 0.01801 0.37565 0.04833 0.11533 0.03032 0.22219 0.07284 0.31853 0.12082 0.19267 0.09597 0.34836 0.21472 0.4745 0.30536 0.12614 0.09063 0.22276 0.15336 0.29876 0.19331 0.07601 0.03995 0.13141 0.05712 0.17794 0.05712 0.04655 0 0.10194-0.01717 0.17794-0.05712 0.07601-0.03995 0.17262-0.10268 0.29876-0.19331 0.12614-0.09064 0.28183-0.20939 0.47451-0.30536 0.09633-0.04798 0.20319-0.0905 0.31853-0.12082s0.23973-0.04833 0.37565-0.04833 0.26031 0.01801 0.37565 0.04833 0.2222 0.07284 0.31853 0.12082c0.19268 0.09597 0.34837 0.21472 0.47451 0.30536 0.12614 0.09063 0.22275 0.15336 0.29876 0.19331s0.13141 0.05712 0.17794 0.05712 0.10193-0.01717 0.17794-0.05712c0.076-0.03995 0.17262-0.10268 0.29876-0.19331 0.06307-0.04532 0.13396-0.0986 0.21308-0.15158 0.07913-0.05298 0.16701-0.10579 0.26362-0.15378 0.09661-0.04798 0.20079-0.0905 0.31633-0.12082 0.11555-0.03032 0.24193-0.04833 0.37785-0.04833s0.26031 0.01801 0.37565 0.04833 0.2222 0.07284 0.31853 0.12082c0.19268 0.09597 0.34838 0.21472 0.4745 0.30536 0.12615 0.09063 0.22276 0.15336 0.29877 0.19331s0.13141 0.05712 0.17794 0.05712c0.04654 0 0.10193-0.01717 0.17794-0.05712s0.17262-0.10268 0.29876-0.19331c0.12614-0.09064 0.28183-0.20939 0.4745-0.30536 0.09634-0.04798 0.2032-0.0905 0.31854-0.12082s0.23972-0.04833 0.37565-0.04833c0.13592 0 0.26031 0.01801 0.37565 0.04833s0.22219 0.07284 0.31853 0.12082c0.19267 0.09597 0.34836 0.21472 0.4745 0.30536 0.12614 0.09063 0.22276 0.15336 0.29876 0.19331 0.07601 0.03995 0.13141 0.05712 0.17794 0.05712s0.10193-0.01717 0.17794-0.05712 0.17263-0.10268 0.29876-0.19331c0.12614-0.09064 0.28183-0.20939 0.47451-0.30536 0.09634-0.04798 0.20319-0.0905 0.31853-0.12082s0.23973-0.04833 0.37565-0.04833 0.2623 0.01801 0.37785 0.04833c0.11554 0.03032 0.21972 0.07284 0.31633 0.12082 0.09662 0.04799 0.1845 0.1008 0.26362 0.15378s0.15001 0.10626 0.21308 0.15158c0.12614 0.09063 0.22276 0.15336 0.29877 0.19331 0.076 0.03995 0.1314 0.05712 0.17794 0.05712 0.04653 0 0.10193-0.01717 0.17793-0.05712 0.07601-0.03995 0.17263-0.10268 0.29877-0.19331 0.12613-0.09064 0.28182-0.20939 0.4745-0.30536 0.09634-0.04798 0.20319-0.0905 0.31853-0.12082s0.23973-0.04833 0.37565-0.04833c0.13593 0 0.26031 0.01801 0.37565 0.04833s0.2222 0.07284 0.31853 0.12082c0.09718 0.0484 0.16 0.10035 0.23945 0.15378 0.23859-0.33608 0.46571-0.68185 0.67881-1.0369 2.34-3.6182 2.7877-8.0414 2.5812-12.247v-0.14938h-35.021z" fill="#0071bc" fill-rule="evenodd" stroke="#000" stroke-width=".070297"/><path d="m128.25 521.1h-17.526c0.03817 7.1131-0.0257 14.229 0.02856 21.342h17.497v-21.342z" fill="#eac102" fill-rule="evenodd" stroke="#000" stroke-width=".21089"/><path d="m128.25 521.1v21.342h17.524v-21.342h-17.524z" fill="#ed1c24" fill-rule="evenodd" stroke="#000" stroke-width=".21089"/><path d="m110.74 521.1c0.01437 8.488-0.0289 16.977 0.02195 25.464 0.27043 7.6171 6.1009 14.574 13.546 16.183 6.8879 1.678 14.599-1.3376 18.486-7.2843 2.3284-3.3258 3.1859-7.4416 2.9939-11.448v-22.915h-35.049z" fill="none" stroke="#000" stroke-width=".21089"/><path d="m110.72 521.1c0.047 8.7584-0.07381 17.522 0.08084 26.277 0.66202 8.0748 7.6239 15.069 15.703 15.747 6.5234 0.68606 13.282-2.6182 16.683-8.2844 2.34-3.6182 2.7884-8.0418 2.582-12.247v-21.492h-35.05z" fill="none" stroke="#000" stroke-width=".21089"/><g transform="matrix(.059257 0 0 .059257 105.64 500.73)" fill="#ed1c24" fill-rule="evenodd" stroke="#000" stroke-width="1px"><path d="m206.86 467.79c-17.784-0.12616-23.933-14.468-27.429-23.429-16.531 6.5115-37.594-29.899-32.571-40-3.894 4.7619-10.604 9.5238-7.4286 14.286-7.4969-3.4969-10.568-2.5679-12 0-6.1622 8.381 6.7273 15.619 3.4286 23.429h-7.4286c5.7154 3.085 11.435 6.1676 9.7143 13.714 1.9212 5.5238-3.3864 11.048 8 16.571 1.701-16.119 16.641-26.433 14.286-4.5714 8.3372 1.6974 11.249 1.6776 15.264 10.1 7.3965 2.9687 24.935 13.998 26.451 25.328-17.616 22.52-32.836 9.1077-47.429-13.714-3.928 8.0653-7.4194 16.692-21.714 11.429 5.5749 8.5044 7.8877 13.954 2.8571 19.429 6.4384 7.5386 7.3122 10.643 3.3029 15.34-4.3795 5.131 3.6872 12.622 9.2685 17.803-0.7619-25.83 25.333-32.892 37.714 9.1429 14.15-26.81 25.317-8.6606 37.143-16 7.7483-1.5454 32.775 28.083 18.857 31.429-61.828 14.814-25.225 31.355-21.714 56.571-13.937 1.476-23.522 4.2578-22.286 10.286-5.8804 4.5958-12.862 8.0906-11.429 20l52-1.1429c7.6405-5.7071-0.92399-16.816-6.2857-26.857-6.0973-31.92 8.8125-30.987 20-12.571-0.84169-9.0422 0.31058-16.272 16-10.286l34.665-9.2885c22.54-71.19-26.978-54.261-28.379-105.57 4.9524 3.6879 9.9048 4.691 14.857 2.2857-4.8487-2.9435-8.8193-6.9407-11.429-12.571 5.1429 3.0678 10.286 6.2942 15.429 3.4286-6.974-3.1212-8.1321-12.058-9.1429-21.143 8.8834-3.991 11.288-16.08 14.286-27.429-5.7143 2.4941-11.429 4.2131-17.143-2.2857 3.8095-2.1081 7.619-2.1396 11.429-11.429-3.261-0.03439-5.8448 0.9471-12-3.4286 6.0271-3.7915 8.8106-9.7453 10.286-16.571-3.8422 1.4912-7.4892 3.1775-14.286 1.7143-0.63397-8.173-8.1493-11.431-19.429-12l3.4286-11.429c-13.871 13.498-33.003 2.4326-34.286 13.143-5.2846 0.7619-16.369 1.5238-24.571 2.2857 1.2363 6.2289-2.3116 13.415 5.7143 18.286 7.8276-8.529 13.881-8.7797 17.143 4 2.9956 12.983-8.6141 7.7086-17.143 6.2857-2.2406 12.243 0.23343 21.08 25.143 13.714 4.1167 12.449-22.013 6.6328-21.143 21.714z"/><path d="m254.86 591.22c22.364 7.8274-14.084 36.489 34.857 52 0.65135 11.967-26.183 11.245-24 18.857l6.2857 4c-6.1817 12.9 22.127 8.5554 34.857 12l29.143-26.857c-29.466-14.254-43.816-35.484-33.714-68"/><path d="m295.43 580.93c12.24 2.6427 23.084 0.62908 26.286-26.857 0.849-33.562-31.504-51.648-26.286-88 0.962-13.696 10.944-46.698 38.857-39.429 20.881 10.323-1.6798 39.379 28.571 51.429-5.8602-1.1553-11.031 0.4462-18.286-6.2857-0.27564 9.6511 5.8917 15.436 13.143 20.571-12.266 1.095-30.368-1.3259-29.143-42.286 1.595-21.62-21.348-5.3913-24 19.429-2.0071 18.791 29.728 49.75 25.714 85.143-1.4284 29.072-12.788 35.799-26.286 37.714"/><path d="m172.57 402.65c19.446 3.985 12.358 16.422 22.374 19.288 12.746 3.6481 19.785 9.2334 27.912 15.569-24.698-13.179-34.056-1.4714-40-8s1.16-19.241-10.286-26.857z"/><path d="m224.75 404.3c-3.5603 2.6713 1.3849 4.7347 4.1313 4.7971 3.94 0.08957 7.209 4.1394 9.1598 8.5783-5.0932-2.5647-9.672-4.4008-13.053-4.5402-1.613-2.0034-2.2848-3.6769 0.2527-5.1078"/><path d="m244.42 455.89c2.8248 3.2961 5.3932 8.13 6.9128 19.257 2.5798-4.0727 5.4893-7.8981 2.9626-15.801"/><path d="m254.29 447.99c11.224 5.5305 14.759 13.624 18.27 21.726 0.10476-7.4714 2.8279-14.506-4.4439-23.207"/><path d="m206.79 467.85c2.4496 7.2913-2.82 12.207-5.7494 17.844 8.0681 1.4866 14.53-0.64147 20.833-3.125-8.5686 13.315-15.323 18.037-27.92 22.847 3.9313 3.1959 9.4159 5.948 19.587 7.3612 0.48276 6.567-2.7102 12.609-5.2083 18.75 13.945-3.4283 24.623-10.825 32.292-21.875 2.6302 8.7918 5.9335 17.373 15.625 23.958 0.83006-8.6116 1.4027-17.26 8.3333-25"/><path d="m231.28 488.04c-0.66097 7.3971-2.8846 12.841-6.1675 16.961 4.1655 0.67535 7.935 0.16275 10.793-3.0838"/><path d="m243.62 484.95c5.5522 5.755 10.663 11.951 12.335 21.586 2.8354-6.2296 5.3963-12.528 3.0838-20.044"/></g><g transform="matrix(.076378 0 0 .071426 209.8 487.04)" fill="#eac102"><g transform="matrix(1.9363 0 0 1.9363 -1336.9 419.81)" fill="#eac102" fill-rule="evenodd" stroke="#000" stroke-width=".42565"><path d="m55.284 284.93 8.4483-10.431-0.43103-52.845c-6.5109-6.6199-5.9436-10.999-7.1552-16.509l-0.21551-8.2759 34.284-0.14656-0.21552 8.2759c-1.2115 5.5098-0.64431 9.8887-7.1552 16.509l-0.43104 52.845 8.4483 10.431-35.578 0.14656z"/><path d="m63.578 274.57 18.319-0.21552"/><path d="m56.034 201.4 33.836 0.10776"/><path d="m66.164 221.66 0.10776 47.629"/><path d="m70.151 221.61 0.21552 47.737"/><path d="m74.138 221.39 0.21552 47.737"/><path d="m78.233 221.61 0.21552 47.737"/><path d="m64.009 206.25c1.9719 0.62175 2.2496 6.3258 4.8491 5.0647"/><path d="m60.56 207.76v1.8319c0 0.5611 0.14353 0.93361 0.32328 1.2931 0.21649 0.43297 0.36851 0.61529 0.86207 0.86207 0.53865 0.26932 0.73857 0.5848 1.2931 0.86207 0.26444 0.13222 0.85762 0.74986 1.0776 0.96983"/><path d="m79.957 204.2c0.51056 0.51055 0.74129 0.70224 0.96983 1.6164 0.14757 0.59027 0 1.4427 0 2.0474 0 0.65845-0.50766 0.9387-0.86207 1.2931-0.33853 0.33853-0.87478 0.54833-1.2931 0.86207-0.35694 0.26771-0.43766 0.7808-0.53879 1.1854-0.14759 0.59036-0.20184 1.1306-0.32328 1.6164-0.1049 0.41959 0.036803 0.90152 0.10776 1.1853"/><path d="m77.909 218.1c-0.006649 0.02659 1.6998-0.02085 2.0474-0.10776 0.71125-0.17781 1.6696-0.52483 2.2629-0.96983 0.4374-0.32805 0.92505-0.80237 1.2931-1.2931 0.34629-0.46172 0.32328-0.88536 0.32328-1.5086 0-0.53209 0.10776-1.1522 0.10776-1.7241v-1.6164-1.8319"/><path d="m85.129 204.09c0-0.57584-0.031902 1.1655 0.10776 1.7241 0.026135 0.10454 0 0.21551 0 0.32327"/><path d="m70.797 216.27c0.046035 0.18414-0.022828 1.1689-0.10776 1.5086-0.089262 0.35705-1.027 0.32328-1.4009 0.32328h-0.86207"/><path d="m64.655 216.06c-0.53879 0 0 1.0776 0 1.6164v0.5388"/><path d="m72.091 205.6c0 0.17105-0.16364 1.345 0.32328 1.8319 0.20292 0.20291 0.88144 0.27423 1.0776 0.32327"/><path d="m74.784 210.02c0.35558 0.35559-1.0588-0.22489-1.5086 0-0.099563 0.04978-0.35781 1.1467-0.43104 1.2931-0.17608 0.35216-0.90209 0.21551-1.4009 0.21551h-0.32328"/><path d="m74.138 213.36c-0.11401 0 0.25632 0.91752 0.32328 1.1853"/><path d="m57.866 203.88c-0.5003 0 0.31505 0.95338 0.53879 1.4009"/></g><g transform="matrix(1.9363 0 0 1.9363 -1080.6 419.81)" fill="#eac102" fill-rule="evenodd" stroke="#000" stroke-width=".42565"><path d="m55.284 284.93 8.4483-10.431-0.43103-52.845c-6.5109-6.6199-5.9436-10.999-7.1552-16.509l-0.21551-8.2759 34.284-0.14656-0.21552 8.2759c-1.2115 5.5098-0.64431 9.8887-7.1552 16.509l-0.43104 52.845 8.4483 10.431-35.578 0.14656z"/><path d="m63.578 274.57 18.319-0.21552"/><path d="m56.034 201.4 33.836 0.10776"/><path d="m66.164 221.66 0.10776 47.629"/><path d="m70.151 221.61 0.21552 47.737"/><path d="m74.138 221.39 0.21552 47.737"/><path d="m78.233 221.61 0.21552 47.737"/><path d="m64.009 206.25c1.9719 0.62175 2.2496 6.3258 4.8491 5.0647"/><path d="m60.56 207.76v1.8319c0 0.5611 0.14353 0.93361 0.32328 1.2931 0.21649 0.43297 0.36851 0.61529 0.86207 0.86207 0.53865 0.26932 0.73857 0.5848 1.2931 0.86207 0.26444 0.13222 0.85762 0.74986 1.0776 0.96983"/><path d="m79.957 204.2c0.51056 0.51055 0.74129 0.70224 0.96983 1.6164 0.14757 0.59027 0 1.4427 0 2.0474 0 0.65845-0.50766 0.9387-0.86207 1.2931-0.33853 0.33853-0.87478 0.54833-1.2931 0.86207-0.35694 0.26771-0.43766 0.7808-0.53879 1.1854-0.14759 0.59036-0.20184 1.1306-0.32328 1.6164-0.1049 0.41959 0.036803 0.90152 0.10776 1.1853"/><path d="m77.909 218.1c-0.006649 0.02659 1.6998-0.02085 2.0474-0.10776 0.71125-0.17781 1.6696-0.52483 2.2629-0.96983 0.4374-0.32805 0.92505-0.80237 1.2931-1.2931 0.34629-0.46172 0.32328-0.88536 0.32328-1.5086 0-0.53209 0.10776-1.1522 0.10776-1.7241v-1.6164-1.8319"/><path d="m85.129 204.09c0-0.57584-0.031902 1.1655 0.10776 1.7241 0.026135 0.10454 0 0.21551 0 0.32327"/><path d="m70.797 216.27c0.046035 0.18414-0.022828 1.1689-0.10776 1.5086-0.089262 0.35705-1.027 0.32328-1.4009 0.32328h-0.86207"/><path d="m64.655 216.06c-0.53879 0 0 1.0776 0 1.6164v0.5388"/><path d="m72.091 205.6c0 0.17105-0.16364 1.345 0.32328 1.8319 0.20292 0.20291 0.88144 0.27423 1.0776 0.32327"/><path d="m74.784 210.02c0.35558 0.35559-1.0588-0.22489-1.5086 0-0.099563 0.04978-0.35781 1.1467-0.43104 1.2931-0.17608 0.35216-0.90209 0.21551-1.4009 0.21551h-0.32328"/><path d="m74.138 213.36c-0.11401 0 0.25632 0.91752 0.32328 1.1853"/><path d="m57.866 203.88c-0.5003 0 0.31505 0.95338 0.53879 1.4009"/></g><g transform="matrix(1.9363 0 0 1.9363 -1336.9 419.81)" fill-rule="evenodd" stroke="#000" stroke-width=".42565"><path d="m83.207 226.55c-7.8815 6.1779-16.515 9.6485-25.71 11.099-3.3428 10.66-0.53659 22.882 6.0281 24.639l0.089328-4.7842c10.825-2.0914 15.157-5.61 19.745-9.6179 2.0704-10.269 1.701-18.909-0.15239-21.335z" fill="#e3e4e5"/><path d="m63.587 257.44-4.589 0.96343" fill="#eac102"/></g><g transform="matrix(1.9363 0 0 1.9363 -930.43 362.93)" fill-rule="evenodd" stroke="#000" stroke-width=".42565"><path d="m-14.684 255.93c8.0493 4.8897 15.888 10.26 25.71 11.099 3.3428 10.66 0.53659 22.882-6.0281 24.639l-0.089328-4.2915c-10.462-1.2736-15.031-6.5283-19.592-10.111-2.0704-10.269-1.8534-18.909 1e-6 -21.335z" fill="#e3e4e5"/><path d="m4.8374 287.31 4.6875 0.47071" fill="#eac102"/></g><path d="m-1067.4 943.05c5.8836-0.13561 18.467-2.138 24.079-7.4522 9.1409-8.1872 20.527-5.5064 35.471-0.4173 15.519 5.4879 31.043 11.557 50.372 9.4251l-0.07161-42.932c-13.282 2.0675-36.15-3.1896-54.843-11.538-15.706-6.8117-24.099-6.8518-36.77 0.81028-6.4566 5.2662-12.913 7.7092-18.237 8.2585-5.3239-0.549-11.78-2.992-18.237-8.2582-12.671-7.662-21.064-7.622-36.77-0.81028-18.693 8.3483-41.266 13.605-54.547 11.538l-0.0716 42.932c19.329 2.1316 34.557-3.9372 50.076-9.4251 14.943-5.089 26.33-7.7699 35.471 0.41732 5.6124 5.3142 18.196 7.3162 24.079 7.4518z" fill="#e3e4e5" fill-rule="evenodd" stroke="#000" stroke-width=".82418"/><text transform="matrix(.96604 -.20406 .19847 .99323 0 0)" x="-1348.7246" y="662.64618" fill="#000000" font-family="Times New Roman" font-size="29.536px" xml:space="preserve"><tspan x="-1348.7246" y="662.64618" fill="#000000" font-weight="bold">PLVS</tspan></text><text transform="matrix(.86118 .22832 -.16495 1.1175 0 0)" x="-1013.1866" y="1026.3956" fill="#000000" font-family="Franklin Gothic Medium" font-size="27.436px" xml:space="preserve"><tspan x="-1013.1866" y="1026.3956" fill="#000000" font-family="Times New Roman" font-weight="bold">VLTRA</tspan></text><path d="m-1097.3 931.66v-45.442" fill="#eac102" fill-rule="evenodd" stroke="#000" stroke-width=".82418"/><path d="m-1041.8 886.22 1.1804 46.032" fill="#eac102" fill-rule="evenodd" stroke="#000" stroke-width=".82418"/></g><path d="m142.51 555.87c-0.07945-0.05343-0.14227-0.10538-0.23945-0.15378-0.09633-0.04798-0.20319-0.0905-0.31853-0.12082s-0.23972-0.04833-0.37565-0.04833c-0.13592 0-0.26031 0.01801-0.37565 0.04833s-0.22219 0.07284-0.31853 0.12082c-0.19268 0.09597-0.34837 0.21472-0.4745 0.30536-0.12614 0.09063-0.22276 0.15336-0.29877 0.19331-0.076 0.03995-0.1314 0.05712-0.17793 0.05712-0.04654 0-0.10194-0.01717-0.17794-0.05712-0.07601-0.03995-0.17263-0.10268-0.29877-0.19331-0.06307-0.04532-0.13396-0.0986-0.21308-0.15158s-0.167-0.10579-0.26362-0.15378c-0.09661-0.04798-0.20079-0.0905-0.31633-0.12082-0.11555-0.03032-0.24193-0.04833-0.37785-0.04833s-0.26031 0.01801-0.37565 0.04833-0.22219 0.07284-0.31853 0.12082c-0.19268 0.09597-0.34837 0.21472-0.47451 0.30536-0.12613 0.09063-0.22275 0.15336-0.29876 0.19331s-0.13141 0.05712-0.17794 0.05712-0.10193-0.01717-0.17794-0.05712c-0.076-0.03995-0.17262-0.10268-0.29876-0.19331-0.12614-0.09064-0.28183-0.20939-0.4745-0.30536-0.09634-0.04798-0.20319-0.0905-0.31853-0.12082s-0.23973-0.04833-0.37565-0.04833c-0.13593 0-0.26031 0.01801-0.37565 0.04833s-0.2222 0.07284-0.31854 0.12082c-0.19267 0.09597-0.34836 0.21472-0.4745 0.30536-0.12614 0.09063-0.22275 0.15336-0.29876 0.19331s-0.1314 0.05712-0.17794 0.05712c-0.04653 0-0.10193-0.01717-0.17794-0.05712s-0.17262-0.10268-0.29877-0.19331c-0.12612-0.09064-0.28182-0.20939-0.4745-0.30536-0.09633-0.04798-0.20319-0.0905-0.31853-0.12082s-0.23973-0.04833-0.37565-0.04833-0.2623 0.01801-0.37785 0.04833c-0.11554 0.03032-0.21972 0.07284-0.31633 0.12082-0.09661 0.04799-0.18449 0.1008-0.26362 0.15378-0.07912 0.05298-0.15001 0.10626-0.21308 0.15158-0.12614 0.09063-0.22276 0.15336-0.29876 0.19331-0.07601 0.03995-0.13141 0.05712-0.17794 0.05712s-0.10193-0.01717-0.17794-0.05712-0.17262-0.10268-0.29876-0.19331c-0.12614-0.09064-0.28183-0.20939-0.47451-0.30536-0.09633-0.04798-0.20319-0.0905-0.31853-0.12082s-0.23973-0.04833-0.37565-0.04833-0.26031 0.01801-0.37565 0.04833-0.2222 0.07284-0.31853 0.12082c-0.19268 0.09597-0.34837 0.21472-0.47451 0.30536-0.12614 0.09063-0.22275 0.15336-0.29876 0.19331-0.076 0.03995-0.13139 0.05712-0.17794 0.05712-0.04653 0-0.10193-0.01717-0.17794-0.05712-0.076-0.03995-0.17262-0.10268-0.29876-0.19331-0.12614-0.09064-0.28183-0.20939-0.4745-0.30536-0.09634-0.04798-0.2032-0.0905-0.31853-0.12082-0.11534-0.03032-0.23974-0.04833-0.37565-0.04833-0.13592 0-0.2623 0.01801-0.37785 0.04833s-0.21972 0.07284-0.31634 0.12082c-0.09661 0.04799-0.18449 0.1008-0.26361 0.15378s-0.15002 0.10626-0.21308 0.15158c-0.12614 0.09063-0.22276 0.15336-0.29877 0.19331s-0.1314 0.05712-0.17794 0.05712c-0.04652 0-0.10193-0.01717-0.17794-0.05712s-0.17262-0.10268-0.29876-0.19331c-0.12614-0.09064-0.28183-0.20939-0.47451-0.30536-0.09633-0.04798-0.20318-0.0905-0.31853-0.12082-0.11534-0.03032-0.23972-0.04833-0.37565-0.04833-0.13592 0-0.2603 0.01801-0.37564 0.04833-0.11535 0.03032-0.2222 0.07284-0.31854 0.12082-0.19267 0.09597-0.34836 0.21472-0.47451 0.30536-0.12613 0.09063-0.22275 0.15336-0.29876 0.19331-0.076 0.03995-0.1314 0.05712-0.17793 0.05712s-0.10193-0.01717-0.17794-0.05712-0.17263-0.10268-0.29876-0.19331c-0.12614-0.09064-0.28183-0.20939-0.4745-0.30536-0.09635-0.04798-0.2032-0.0905-0.31854-0.12082s-0.23973-0.04833-0.37565-0.04833-0.2623 0.01801-0.37784 0.04833c-0.11555 0.03032-0.21973 0.07284-0.31634 0.12082-0.09662 0.04799-0.18449 0.1008-0.26361 0.15378-0.07913 0.05298-0.15002 0.10626-0.21309 0.15158-0.12614 0.09063-0.22111 0.15336-0.29657 0.19331s-0.13142 0.05712-0.17794 0.05712c-0.04653 0-0.10193-0.01717-0.17794-0.05712s-0.17261-0.10268-0.29876-0.19331c-0.06307-0.04532-0.13397-0.0986-0.21309-0.15158s-0.167-0.10579-0.26361-0.15378c-0.09661-0.04798-0.20079-0.0905-0.31634-0.12082-0.11554-0.03032-0.24192-0.04833-0.37784-0.04833s-0.26031 0.01801-0.37565 0.04833-0.2222 0.07284-0.31853 0.12082c-0.16834 0.08385-0.29826 0.18116-0.41519 0.26581 0.23633 0.31889 0.47702 0.63503 0.73372 0.93803 0.07061-0.04796 0.14747-0.10065 0.19771-0.12741 0.07601-0.0405 0.13142-0.05932 0.17794-0.05932 0.04653 0 0.10193 0.01882 0.17793 0.05932 0.07602 0.04049 0.17263 0.10268 0.29877 0.19331 0.06307 0.04532 0.13397 0.09661 0.21309 0.14938 0.07912 0.05278 0.167 0.10607 0.26361 0.15378s0.20079 0.0907 0.31634 0.12082c0.11554 0.03012 0.24192 0.04833 0.37784 0.04833s0.26031-0.01821 0.37565-0.04833 0.2222-0.07311 0.31853-0.12082c0.09634-0.04771 0.18251-0.101 0.26142-0.15378 0.07891-0.05277 0.15002-0.10406 0.21309-0.14938 0.12614-0.09063 0.22276-0.15282 0.29876-0.19331 0.07601-0.0405 0.1314-0.05932 0.17794-0.05932 0.04652 0 0.10193 0.01882 0.17794 0.05932 0.07601 0.04049 0.17262 0.10268 0.29876 0.19331 0.06307 0.04532 0.13418 0.09661 0.21308 0.14938 0.07892 0.05278 0.16509 0.10607 0.26142 0.15378 0.09634 0.04771 0.2032 0.0907 0.31853 0.12082 0.11535 0.03012 0.23974 0.04833 0.37566 0.04833s0.26031-0.01821 0.37565-0.04833 0.22219-0.07311 0.31853-0.12082c0.09633-0.04771 0.1825-0.101 0.26142-0.15378 0.07891-0.05277 0.15001-0.10406 0.21308-0.14938 0.12614-0.09063 0.22275-0.15282 0.29877-0.19331 0.07601-0.0405 0.13142-0.05932 0.17793-0.05932 0.04654 0 0.10193 0.01882 0.17794 0.05932 0.07602 0.04049 0.17262 0.10268 0.29877 0.19331 0.06307 0.04532 0.13417 0.09661 0.21309 0.14938 0.0789 0.05278 0.16507 0.10607 0.26141 0.15378 0.09633 0.04771 0.20319 0.0907 0.31854 0.12082 0.11533 0.03012 0.23972 0.04833 0.37564 0.04833s0.2623-0.01821 0.37785-0.04833c0.11554-0.03012 0.21972-0.07311 0.31633-0.12082 0.09662-0.04771 0.1845-0.101 0.26362-0.15378 0.07912-0.05277 0.15002-0.10406 0.21309-0.14938 0.12613-0.09063 0.22276-0.15282 0.29876-0.19331 0.076-0.0405 0.1314-0.05932 0.17794-0.05932 0.04653 0 0.10193 0.01882 0.17793 0.05932 0.07601 0.04049 0.17264 0.10268 0.29876 0.19331 0.06307 0.04532 0.13418 0.09661 0.21309 0.14938 0.07892 0.05278 0.16508 0.10607 0.26142 0.15378s0.20319 0.0907 0.31853 0.12082c0.11535 0.03012 0.23973 0.04833 0.37565 0.04833 0.13593 0 0.26031-0.01821 0.37565-0.04833 0.11535-0.03012 0.2222-0.07311 0.31853-0.12082 0.09634-0.04771 0.18251-0.101 0.26142-0.15378 0.07892-0.05277 0.15002-0.10406 0.21309-0.14938 0.12614-0.09063 0.22275-0.15282 0.29876-0.19331 0.07601-0.0405 0.1314-0.05932 0.17794-0.05932s0.10193 0.01882 0.17794 0.05932c0.07601 0.04049 0.17262 0.10268 0.29876 0.19331 0.06307 0.04532 0.13417 0.09661 0.21309 0.14938 0.07891 0.05278 0.16508 0.10607 0.26142 0.15378 0.09633 0.04771 0.20319 0.0907 0.31853 0.12082s0.23973 0.04833 0.37565 0.04833 0.2623-0.01821 0.37785-0.04833c0.11554-0.03012 0.21972-0.07311 0.31633-0.12082s0.18449-0.101 0.26362-0.15378c0.07912-0.05277 0.15001-0.10406 0.21308-0.14938 0.12614-0.09063 0.22276-0.15282 0.29876-0.19331 0.07601-0.0405 0.1314-0.05932 0.17794-0.05932 0.04653 0 0.10248 0.01882 0.17794 0.05932 0.07546 0.04049 0.17044 0.10268 0.29656 0.19331 0.06307 0.04532 0.13397 0.09661 0.21309 0.14938 0.07912 0.05278 0.167 0.10607 0.26362 0.15378 0.09661 0.04771 0.20079 0.0907 0.31633 0.12082 0.11555 0.03012 0.24193 0.04833 0.37785 0.04833s0.26031-0.01821 0.37564-0.04833c0.11535-0.03012 0.2222-0.07311 0.31854-0.12082s0.1825-0.101 0.26142-0.15378c0.07891-0.05277 0.15002-0.10406 0.21309-0.14938 0.12613-0.09063 0.22275-0.15282 0.29876-0.19331 0.076-0.0405 0.1314-0.05932 0.17794-0.05932 0.04653 0 0.10193 0.01882 0.17794 0.05932 0.076 0.04049 0.17262 0.10268 0.29876 0.19331 0.06307 0.04532 0.13417 0.09661 0.21308 0.14938 0.07892 0.05278 0.16508 0.10607 0.26142 0.15378s0.20319 0.0907 0.31853 0.12082 0.23973 0.04833 0.37565 0.04833c0.13593 0 0.26031-0.01821 0.37565-0.04833s0.2222-0.07311 0.31854-0.12082c0.09633-0.04771 0.1825-0.101 0.26141-0.15378 0.07892-0.05277 0.15002-0.10406 0.21309-0.14938 0.12614-0.09063 0.22275-0.15282 0.29876-0.19331 0.07601-0.0405 0.13141-0.05932 0.17794-0.05932 0.04654 0 0.10193 0.01882 0.17794 0.05932 0.07601 0.04049 0.17262 0.10268 0.29876 0.19331 0.06307 0.04532 0.13397 0.09661 0.21309 0.14938 0.07912 0.05278 0.167 0.10607 0.26361 0.15378 0.09662 0.04771 0.20079 0.0907 0.31634 0.12082s0.24192 0.04833 0.37785 0.04833c0.13592 0 0.2603-0.01821 0.37564-0.04833 0.11535-0.03012 0.2222-0.07311 0.31854-0.12082 0.09633-0.04771 0.1825-0.101 0.26141-0.15378 0.07892-0.05277 0.15002-0.10406 0.21309-0.14938 0.12614-0.09063 0.22276-0.15282 0.29876-0.19331 0.07601-0.0405 0.13141-0.05932 0.17794-0.05932 0.04654 0 0.10193 0.01882 0.17794 0.05932 0.00781 0.00416 0.02252 0.01512 0.03076 0.01977 0.25217-0.30575 0.49484-0.61832 0.72493-0.94242z" fill="#e3e4e5" fill-rule="evenodd" stroke="#000" stroke-width=".070297"/><g transform="matrix(.070293 0 0 .065101 99.64 490.31)" stroke="#000"><path d="m524 509.41v59.688h-8.5938v-48.188h-21.25v74.594l8.625 6.3125v74.031l-16.656 21.812v68.875h105.59v-68.875l-16.625-21.812v-74.031l8.5938-6.3125v-74.594h-21.219v48.188h-8.625v-59.688h-29.844z" fill="#eac102" fill-rule="evenodd" stroke-width="1.0392px"/><path d="m591.3 745.14h-105.28" fill="none" stroke-width="1.0392px"/><path d="m591.3 736.16h-105.28" fill="none" stroke-width="1.0392px"/><path d="m591.3 724.15h-105.28" fill="none" stroke-width="1.0392px"/><path d="m591.3 712.13h-105.28" fill="none" stroke-width="1.0392px"/><path d="m591.3 700.11h-105.28" fill="none" stroke-width="1.0392px"/><path d="m584.17 688.09h-90.242" fill="none" stroke-linecap="round" stroke-linejoin="round" stroke-width="1.0392px"/><path d="m575.64 676.08h-73.109" fill="none" stroke-width="1.0392px"/><path d="m575.64 666.24h-73.109" fill="none" stroke-width="1.0392px"/><path d="m575.64 654.48h-73.109" fill="none" stroke-width="1.0392px"/><path d="m575.64 643.31h-73.109" fill="none" stroke-width="1.0392px"/><path d="m575.64 632.13h-73.109" fill="none" stroke-width="1.0392px"/><path d="m575.64 620.96h-73.109" fill="none" stroke-width="1.0392px"/><path d="m575.64 609.79h-73.109" fill="none" stroke-width="1.0392px"/><path d="m575.64 601.45h-73.109" fill="none" stroke-width="1.0392px"/><path d="m510.43 736.14v-11.838" fill="none" stroke-width="1.0392px"/><path d="m510.43 711.97v-11.838" fill="none" stroke-width="1.0392px"/><path d="m510.43 688.45v-11.838" fill="none" stroke-width="1.0392px"/><path d="m532.66 711.97v-11.838" fill="none" stroke-width="1.0392px"/><path d="m532.66 688.45v-11.838" fill="none" stroke-width="1.0392px"/><path d="m544 711.97v-11.838" fill="none" stroke-width="1.0392px"/><path d="m544 688.45v-11.838" fill="none" stroke-width="1.0392px"/><path d="m566.88 736.14v-11.838" fill="none" stroke-width="1.0392px"/><path d="m566.88 711.97v-11.838" fill="none" stroke-width="1.0392px"/><path d="m566.88 688.45v-11.838" fill="none" stroke-width="1.0392px"/><g transform="translate(-.47823)" fill="none" stroke-width="1.0392px"><path d="m502.09 700v-11.838"/><path d="m526.96 700v-11.838"/><path d="m551.84 700v-11.838"/><path d="m576.71 700v-11.838"/></g><g transform="translate(-.47823 23.736)" fill="none" stroke-width="1.0392px"><path d="m502.09 700v-11.838"/><path d="m526.96 700v-11.838"/><path d="m551.84 700v-11.838"/><path d="m576.71 700v-11.838"/></g><path d="m538.34 714.36c-5.4994 0-9.4746 5.2308-9.4746 11.086v41.089h18.949v-41.089c0-5.8554-3.9751-11.086-9.4745-11.086z" fill="#0071bc" fill-rule="evenodd" stroke-linecap="round" stroke-linejoin="round" stroke-width="1.0392"/><path d="m538.34 708.16c-8.7974 0-15.156 8.3012-15.156 17.594v40.773h8v-40.773c0-5.7668 3.5878-9.5938 7.1562-9.5938 3.5685 0 7.1562 3.8269 7.1562 9.5938v40.773h8v-40.773c0-9.2925-6.3589-17.594-15.156-17.594z" fill="#eac102" fill-rule="evenodd" stroke-linecap="round" stroke-linejoin="round" stroke-width="1.0392"/><g fill="none" stroke-width="1.0392px"><path d="m538.92 675.58v-8.9811"/><path d="m520.75 675.58v-9.4088"/><path d="m557.1 675.58v-8.9811"/></g><g transform="matrix(1 0 0 1.1233 0 -104.93)" fill="none" stroke-width=".98049px"><path d="m538.92 675.58v-8.9811"/><path d="m520.75 675.58v-9.4088"/><path d="m557.1 675.58v-8.9811"/></g><path d="m538.92 632.29v-10.834" fill="none" stroke-width="1.0392px"/><g transform="matrix(1 0 0 .80946 0 62.716)" fill="none" stroke-width="1.155px"><path d="m538.92 675.58v-9.8609"/><path d="m520.75 675.58v-9.4088"/><path d="m557.1 675.58v-9.6578"/></g><path d="m522.11 617.13c-4.0861 0-7.0396 3.9251-7.0396 8.319v25.047h14.079v-25.047c0-4.3938-2.9535-8.319-7.0395-8.319z" fill="#0071bc" fill-rule="evenodd" stroke-linecap="round" stroke-linejoin="round" stroke-width="1.0392"/><path d="m556.61 617.13c-4.0861 0-7.0396 3.9251-7.0396 8.319v25.047h14.079v-25.047c0-4.3938-2.9535-8.319-7.0395-8.319z" fill="#0071bc" fill-rule="evenodd" stroke-linecap="round" stroke-linejoin="round" stroke-width="1.0392"/><g transform="translate(-.15748)" fill="none" stroke-width="1.0392px"><path d="m528.82 665.75v-11.119"/><path d="m549.34 665.75v-11.119"/></g><g transform="translate(-.15748 -44.264)" fill="none" stroke-width="1.0392px"><path d="m528.82 665.75v-11.119"/><path d="m549.34 665.75v-11.119"/></g><path d="m582.82 595.89h-88.307" fill="none" stroke-width="1.0392px"/><path d="m583.75 591.33h-89.234" fill="none" stroke-width="1.0392px"/><path d="m583.75 580.21h-89.234" fill="none" stroke-width="1.0392px"/><path d="m583.75 569.09h-89.234" fill="none" stroke-width="1.0392px"/><path d="m562.56 558.66h20.9" fill="none" stroke-width="1.0392px"/><path d="m562.56 546.87h20.9" fill="none" stroke-width="1.0392px"/><path d="m562.56 535.08h20.9" fill="none" stroke-width="1.0392px"/><path d="m494.23 558.66h20.9" fill="none" stroke-width="1.0392px"/><path d="m494.23 546.87h20.9" fill="none" stroke-width="1.0392px"/><path d="m494.23 535.08h20.9" fill="none" stroke-width="1.0392px"/><path d="m524.11 558.66h29.207" fill="none" stroke-width="1.0392px"/><path d="m524.11 546.87h29.207" fill="none" stroke-width="1.0392px"/><path d="m524.11 535.08h29.207" fill="none" stroke-width="1.0392px"/><path d="m524.11 524.37h29.207" fill="none" stroke-width="1.0392px"/><path d="m504.68 521.02v7.9045" fill="none" stroke-width="1.0392px"/><path d="m573.01 521.02v7.9045" fill="none" stroke-width="1.0392px"/><g transform="translate(.06698)" fill="none" stroke-width="1.0392px"><path d="m534.03 509.09v7.9045"/><path d="m543.27 509.09v7.9045"/></g><path d="m504.68 534.68v12.326" fill="none" stroke-width="1.0392px"/><path d="m573.01 534.68v12.326" fill="none" stroke-width="1.0392px"/><path d="m504.68 558.93v9.9142" fill="none" stroke-width="1.0392px"/><path d="m573.01 558.93v9.9142" fill="none" stroke-width="1.0392px"/><path d="m504.68 580.5v11.254" fill="none" stroke-width="1.0392px"/><path d="m573.01 580.5v11.254" fill="none" stroke-width="1.0392px"/><path d="m515.43 569.03v10.947" fill="none" stroke-width="1.0392px"/><path d="m562.57 569.03v10.947" fill="none" stroke-width="1.0392px"/><path d="m553.84 569.03v10.947" fill="none" stroke-width="1.0392px"/><path d="m523.94 569.03v10.947" fill="none" stroke-width="1.0392px"/><path d="m538.71 524.32v10.803" fill="none" stroke-width="1.0392px"/><g transform="matrix(1 0 0 1.4412 .06698 -198.4)" fill="none" stroke-width=".86562px"><path d="m534.03 509.09v7.9045"/><path d="m543.27 509.09v7.9045"/></g><path d="m538.71 547.35v10.803" fill="none" stroke-width="1.0392px"/><g transform="matrix(1 0 0 1.365 .06698 -136.64)" fill="none" stroke-width=".88944px"><path d="m534.03 509.09v7.9045"/><path d="m543.27 509.09v7.9045"/></g><path d="m538.71 569.28v10.803" fill="none" stroke-width="1.0392px"/><g transform="matrix(1 0 0 1.365 .06698 -114.47)" fill="none" stroke-width=".88944px"><path d="m534.03 509.09v7.9045"/><path d="m543.27 509.09v7.9045"/></g></g><path d="m121.98 534.6c0.00515 3.0438-0.01035 6.088 0.00788 9.1316 0.09697 2.7315 2.1878 5.2264 4.8577 5.8033 2.47 0.60173 5.2351-0.47965 6.6293-2.6122 0.83496-1.1926 1.1425-2.6686 1.0736-4.1053v-8.2174h-12.568z" fill="#e3e4e5" fill-rule="evenodd" stroke="#000" stroke-width=".21089"/><g transform="matrix(.070297 0 0 .070297 112.91 486.48)" fill-rule="evenodd" stroke="#000"><path d="m209.54 798.09c-3.8041 23.305-11.97 44.74-24.77 64.189 15.743-9.086 27.511-13.333 14.071 13.108 12.975-15.719 23.436-18.87 28.721 3.8552-1.4808-23.211 10.573-21.61 24.288-16.963-29.322-15.4-22.137-41.232-26.697-63.707l-15.614-0.4819z" fill="#e3e4e5"/><path d="m214.97 798.95c6.7127 7.1737 10.422 5.7719 14.864-2.3853 5.8632-8.1033 10.023-6.6492 15.886 0.68152 5.2033 9.9052 14.836 2.7318 19.699 7.4318 6.962 0.8716 10.011-2.1701 8.7948-9.4763-0.1969-10.266 6.24-9.4757 11.18-11.18 8.0673-2.3637 10.784-11.202-0.6815-13.225-7.5847-2.7886-10.736-7.0551-2.0446-15.269 5.2803-9.6718 2.5109-16.249-8.454-16.227-9.4789 7.7778-8.1221-3.7306-7.7725-11.521-3.1047-9.2617-8.8166-4.6183-14.588 0.34075-4.3303 6.0359-5.0059 1.4225-8.454-1.363 4.0161-10.77-5.5676-10.981-13.906-9.8171-3.1932-8.8401-6.2884-17.938-16.567-8.1781-7.8192-4.1192-14.559-4.8195-16.973 8.1781-1.9743 6.8043-5.1181 9.71-9.8171 7.4318-7.3171-1.4406-14.324-2.3647-16.291 5.1113-0.4824 5.1855-4.4135 5.198-8.454 5.0465-8.794-1.0745-11.345 5.2296-10.158 15.951-7.1635 4.034-11.069 13.48 2.5719 16.183-0.774 9.3946-3.3437 18.665 3.7528 23.613-1.8418 10.18 1.1967 17.768 11.054 8.1858 8.2268-9.6334 8.2756-5.9792 12.413-2.5798 7.583 8.9227 9.7347 6.0638 15.61 7.4318 7.5671 1.4554 14.374 1.3912 18.336-4.365z" fill="#008f4c"/></g></g></g></svg>