<?xml version="1.0" encoding="UTF-8"?><svg version="1.0" viewBox="0 0 650 500" xmlns="http://www.w3.org/2000/svg" xmlns:xlink="http://www.w3.org/1999/xlink"><rect width="650" height="500" fill="#da121a"/><rect y="250" width="325" height="250" fill="#fff"/><rect x="325" width="325" height="250" fill="#fff"/><g transform="translate(-895.63 -1494.7)"><g id="a" transform="matrix(.94391 0 0 .94391 58.636 111.27)"><path d="m1027.3 1822.8c-4.5267-6.2974-14.082-10.582-11.431-19.752-1.2452 0-0.7514-8.9355-1.0606-9.7586l-5.5385-3.2919 0.3535 5.8786-8.7261-1.8845-0.112 8.7037-2.3569 2.9393 2.946 6.055c0.1179-0.059 0.1179 1.8224 4.0067 1.7048 0 0-0.707 1.9056 1.8855 5.4329-0.8483 6.7513 4.3665 9.7182 7.1883 14.555 3.1104-3.8157 5.2405-7.9607 12.845-10.582z" fill="#742c64" stroke="#192e2e"/><path d="m1064.6 1772.8c-3.8288-3.1579-12.353 2.1494-6.4995 3.9907-1.2303 1.1638-0.6649 2.3277 0 3.4916l8.8326 4.822c-1.2726 1.9537-0.9232 4.0426 1.6666 6.3183-1.0891 3.1529-3.3024 2.3793-6.1662-0.6651h-5.1662c-3.7635 1.7736-2.6232 3.5472-1 5.3208-3.6469 3.8183-0.6168 7.524 4.1663 2.4941l3.1665 2.9929c-0.586 6.5387-16.876 9.4619-10.666 0.8314-9.571-3.3359-8.5199 4.0797-4.6372 9.9464-5.0805 0.6016-15.461 3.0161-8.695-5.1245-11.324 1.1573-10.729 9.6112-2.6665 13.801-7.8472 1.5471-15.926 1.2468-22.498 12.969-6.7475 5.9643-9.7492-0.054-8.618 1.7638 1.8817 3.0247 5.8814 10.045 11.341 1.7788-1.8008 20.071-8.1734 20.306-8.8262 18.921-0.6791-1.4408 2.4054 11.067 9.3511-1.7813 4.7173 13.453-1.0677 11.46-2.4218 12.026-1.4519 0.6068 2.6106 7.1639 10.173-1.6157l5.6662-7.4823c-7.4987 7.1819-11.347 24.899-23.348 20.647l-3.4997 1.6627 1.3498 4.4606 5.9996 2.3277c-5.5506-1.0383-8.4421 0.046-7.3328 4.3232 2.6273 4.8742 7.1643 10.71 6.9995 1.1639-0.098 6.1955 2.9019 7.533 5.8329 8.9787 3.9933 0.8766 3.7007-5.8796 0.9999-5.9857-0.1052-3.6641 1.0283-6.1715 4.3329-6.651 3.3061 3.8042 4.0576-0.5952 5.333-3.1592 4.5231 0.4771 4.167-1.0227 4.9997-5.3207l8.8326-2.8266c6.4665 10.322 18.401 10.514 30.998 9.4774 3.4717 1.552 4.2706 3.1038 3.9997 4.6558-20.942 8.3573-14.047-11.326-42.33 6.3184-0.9444 0.271-1.8887 0.6639-2.8331-0.8315-1.1585 2.1881-2.323 4.0698 1.4999 6.651 1.3755 4.2145 0.4963 7.7011-5.1663 9.6438 3.8309 7.1436 7.0543 4.8945 9.9993-1.6627 0.8691 4.855 4.73 10.409-0.6666 13.801 2.5322 2.0112 5.0672 3.5102 7.166 0.3325l-0.094 4.8889c-13.921 10.85-14.038-6.2151-16.832-2.8267-0.83 1.8617-1.0298 4.6255-3.5727 3.9237-5.7983 3.3713 2.7493 5.2362 4.4996 7.8148l-6.8327-4.4894-3.6664 0.1663c0.5211 1.5295 1.0468 3.06-0.1667 4.1567 0.2261 3.0465-0.2257 6.4311 5.9996 6.4848 2.2424 1.5881 4.4312 3.1976 4.4996 5.6533 9.3626-0.7131 8.3651-4.0102 11.332-6.3184 1.4388 7.5884 4.706-3.6965 7.0849-5.9327 1.4627 0.6185 1.7986 3.2981 1.0857 5.2229 4.1667-5.8109 9.8366-12.882 11.784-19.59-1.849-1.4094-2.6624-2.955-3.6228-6.1376-3.9976-12.365 7.2606-14.744 21.332-17.791-6.7447 5.3904-16.746 16.788-10.499 25.772 0.4871 3.1303 1.3357 6.4653-1.7535 7.5731 3.5553 2.4525 5.2201-1.8785 6.0744-4.518 2.099 3.511 9.3894 9.1534 8.6322 13.511 0.9095 0.9065 6.6663-2.0749 4.4998-7.316 4.4559-0.8634 6.4193-1.9499 13.05-4.2622 5.9183 1.0184 13.752 18.494-0.1714 12.47-1.879-1.5591-4.1266-2.1378-7.3328-0.1662 0.617 1.244 0.6349 3.0689-0.1666 4.9882-0.131 5.1535 7.5296-0.7515 9.166-0.4989-12.359 4.0293-5.2891 1.6714-3.8331 8.6462 3.1733 4.6093 5.2885-1.934 12.832-6.3183l-2.3331 2.1615 0.3333 8.3137c10.423 0.6613 8.9816-10.08 12.548-15.198 0.809-1.161 2.6484-1.9033 3.6083-2.7276-5.3648-0.3601-10.163-8.2857-5.6858-12.034-3.3178-2.9779-10.199-5.565-6.354-10.131-5.4217-4.6646-4.4751-6.5288-13.666-0.665-3.4249-2.2611-8.0394-4.7628-5.2828-8.1284 7.7827-5.5871 8.2451-11.785 10.999-17.791 47.437-17.19-24.843-69.232 6.9246-72.54 0.6328 5.3508-0.5604 10.822 1.5749 16.173 3.7799 1.4575 6.3401 2.1554 7.666 5.6533l2.6496 6.8181c-0.1457-3.8955 2.129-8.6532-0.334-11.686-2.773-3.4147-2.1846-6.0293-2.1734-8.4088 1.7655-4.2539-0.2732-6.0808-0.6884-8.0597-7.144-8.0927-10.229-6.3621-13.201-5.1318-10.51 4.35-10.866 17.602-3.6658 28.081 15.144 22.039 21.943 40.992 0.1021 42.63-6.1607-7.9875-22.246-8.0446-26.185-38.589 0.4004-3.7071 2.9164-3.7205 4.9995-4.4894l2.9999-2.3279c-8.3258-5.1162 2.0585-20.791 9.3326-11.972-0.3568-6.2084-0.8432-16.463 2.4816-21.761 0.715-1.4229 2.6656 0.8631 4.129 1.687-2.0626-2.257-2.9586-16.304 4.7218-11.352 2.699-0.744 2.391-3.5013 1.8894-2.6197-1.2778 2.2454-5.3225-0.6383-5.627-8.3928-3.0044-6.2162-8.6582-13.109-12.928-16.423-3.6968-0.5136-7.1339-2.3224-11.666 1.3302h-3.6664l-1.4998 1.164c-0.2797-1.6059-2.5324-1.6369-4.9997-1.4966z" fill="#742c64" stroke="#192e2e"/><path d="m1000.9 1802.5c3.9182 1.4515 6.7733 3.8092 8.6109 7.0343" fill="none" stroke="#192e2e"/><path d="m1009.4 1795.9c-0.1454 2.6649-1.7425 5.3299 1.1784 7.9949" fill="none" stroke="#192e2e"/><path d="m1076.4 1774.1s3.3654 3.4918 3.6665 9.1451" fill="none" stroke="#192e2e"/><path d="m1076.9 1775.5s-7.5197 6.0593 2.6461 6.2255c1.2609-2.3772-2.6461-6.2255-2.6461-6.2255z" fill="#e7e7e7" stroke="#192e2e"/><path d="m1059.2 1774.9c0.4268 2.6604 2.7074 3.3255 2.833 3.3255" fill="none" stroke="#192e2e"/><path d="m1089.2 1789.6s4.5285 3.2182 1.8621 7.5412" fill="none" stroke="#192e2e"/><path d="m1071.3 1785.9c0.2035 2.0569 3.4203 5.7706 6.1034 6.8182" fill="none" stroke="#192e2e"/><path d="m1068.4 1819.8c-3.2061 6.337 1.1524 5.3617 3.4386 4.5431 1.5702-0.5624 1.3391 7.5697-8.1049 4.6019-4.1263-2.9425-2.6153-8.1684-0.25-10.891" fill="none" stroke="#192e2e"/><path d="m1063.4 1828.7c-0.7265 9.068-4.9306 20.672-14.332 11.805 8.9173 1.0671 4.5025-10.723 5.5889-17.322 0 0-3.6367 11.796-12.255 10.671-7.1737-0.9366-4.0865-8.1619-4.1663-8.1474-6e-4 -0 6.3462 4.0422 7.9994-0.6651 1.8318-5.2156 5.333-9.8101 5.333-9.8101" fill="none" stroke="#192e2e"/><path d="m1077.8 1821.1c1.0199 3.3077 0.8285 6.023-1.9105 7.8447" fill="none" stroke="#192e2e"/><path d="m1029.5 1836.3s-5.4059 9.6207-0.5728 11.782" fill="none" stroke="#192e2e"/><path d="m1043.9 1844.3s-0.8333 8.6462 1.6665 8.9787c2.4998 0.3326-6.9994 2.8267-7.166-9.9763" fill="none" stroke="#192e2e"/><path d="m1114.4 1835.8c0.9221 1.2747 0.4931 3.515 0 3.8243" fill="none" stroke="#192e2e"/><path d="m1076.7 1891.3c3.0314 2.8665 0.013 4.8463-0.8269 5.5145" fill="none" stroke="#192e2e"/><path d="m1073.2 1840.8c0.064 2.0208-0.098 4.1267 3.4996 4.8219" fill="none" stroke="#192e2e"/><path d="m1061.9 1789.7s-2.9997-4.822-11.499-0.6651c-8.4993 4.1568-11.008-1.9952-11.008-4.822 0-2.8265 4.3414-3.4916 4.3414-3.4916s-1.8332 7.1497 6.8328 4.9882c8.6661-2.1616 11.999 1.3302 11.999 1.3302l2.508 5.3922-3.1746-2.7319z" fill="#da121a" stroke="#192e2e"/><path d="m1078.4 1777c-0.1825 0.099-3.6204 3.0753 1.1641 2.6841" fill="#192e2e" stroke="#192e2e"/><path d="m1040.2 1877.2c7.9944-3.2631 9.5083-8.6737 7.5176-14.891" fill="none" stroke="#192e2e"/><path d="m1013 1899.1 4.7136 1.8811" fill="none" stroke="#192e2e"/><path d="m1023.9 1931.6c2.2503 0.3028 3.3034-1.3853 4.2423-3.2635" fill="none" stroke="#192e2e"/><path d="m1017.3 1935.3c0.7291 1.1254 2.2463 1.8578 0.4713 4.2326" fill="none" stroke="#192e2e"/><path d="m1088.9 1943.8c1.8734 1.2799 2.1803 3.0065 0.9427 5.1731" fill="none" stroke="#192e2e"/><path d="m1091.8 1952.1c3.8542 1.7894 2.8884 3.5787 2.9662 5.3681" fill="none" stroke="#192e2e"/><path d="m1106.5 1956.5c2.7552-0.1125 3.5902 1.2114 4.6328 2.3801" fill="none" stroke="#192e2e"/><path d="m1102 1777-2.7641 0.2155s-2.714 1.9199-1.3332 3.9905c1.3708 2.0557 2.3106 1.3471 3.1394 0.1832 0.6757-0.9488 0.8031-2.4623 0.8031-2.4623l5.7234 1.1152-2.4998 4.4894c-1.3256-0.2058-2.3362-0.9566-2.8576-0.6449 0.1423 0.02-3.8086 0.4299-2.3087 1.9264 1.4999 1.4964 6.7554 0.4584 6.7554 0.4584l2.1951 4.7767c0-0.666-7.6425-2.9289-9.2727-1.7312-0.1707-2.3763-11.107-16.368-13.16-17.296l1.5519-8.9392 3.4394 3.7489c0 0.025-1.1155 1.301-1.9949 2.0066-0.9268 0.7436-1.1783 2.3947 0.06 2.7579 1.0589 0.3108 2.3262 0.387 2.8084-0.193 0.8078-0.9716 0.6587-2.9289 0.6587-2.9289l3.8615-1.0684 0.3333 4.4894-2.9998 0.8314s-0.8788 1.1631 0.3333 2.8266c1.3271 1.8213 2.8629 1.4727 3.3071 0.475 0.4113-0.9239 0.526-2.304 0.526-2.304s3.4973-0.7714 4.164-1.2702c-0.026 0.8592-0.6886 4.7662-0.469 4.5465z" fill="#fcdd09" stroke="#192e2e"/><path d="m1005 1880.2c-0.2648-0.2355-2.7501 0.5669-3.6686 1.8537-0.4181 0.5858 1.3193 1.1566 4 2.1913 1.2299-2.0947 1.4493-2.5427-0.3314-4.045z" fill="#da121a" stroke="#192e2e"/><path d="m1004.5 1890.3-1.9201 4.852s4.3059 0.3863 4.9706 0.3793c1.3579-0.014-1.2036-6.3215-3.0505-5.2313z" fill="#da121a" stroke="#192e2e"/><path d="m1013.3 1899.1 0.02 4.8218 3.8129-2.9928c-0.6157-2.5969-2.2155-2.2397-3.833-1.829z" fill="#da121a" stroke="#192e2e"/><path d="m1024.1 1931.6s3.978-1.0709 3.9997-3.4918c0.033-3.7244 0.7019 1.3555-3.3716-0.8499-3.645-1.9733-0.796 4.6865-0.6281 4.3417z" fill="#da121a" stroke="#192e2e"/><path d="m1017.2 1939.8c1.9649-1.2147 0.9088-2.7654 1.0356-4.1846-2.2126 0.7501-4.4199 1.5041-4.8538 3.589 1.3308 0.4308 2.7047 1.0344 3.8182 0.5956z" fill="#da121a" stroke="#192e2e"/><path d="m1024.6 1946.7c2.3782 1.2389 2.6377 2.7428 3.2832 4.1985l-4.4996 0.8313 1.2164-5.0298z" fill="#da121a" stroke="#192e2e"/><path d="m1089.6 1944c1.2478 0.4801 2.0405 5.4142 0 5.1731-1.4043-0.1658-3.2996-0.7054-3.2996-0.7054s2.5925-5.8786 3.2996-4.4677z" fill="#da121a" stroke="#192e2e"/><path d="m1092.4 1952.3c-0.074-1.3392 4.5282 3.2853 2.9518 5.3111-1.1024 1.4164-7.1672-1.7839-7.1672-1.7839l4.2154-3.5272z" fill="#da121a" stroke="#192e2e"/><path d="m1105.5 1956c0-0.6423 6.5154 1.1573 6.2797 3.2919-0.157 1.4219-6.169 2.1583-6.169 2.1583l-0.1107-5.4502z" fill="#da121a" stroke="#192e2e"/><path d="m1010.2 1795.7s2.3304 0.8263 4.098-2.5833l-4.8846-2.5698 0.7866 5.1531z" fill="#da121a" stroke="#192e2e"/><path d="m1001.2 1798.7c3.9269 0.2968 3.8829-1.595 4.3217-3.5673l-4.8344-0.9977 0.5127 4.565z" fill="#da121a" stroke="#192e2e"/><path d="m998.35 1805.5-3.061 4.6997 5.8922 0.8229c-0.3521-1.6977 0.1551-2.9488-2.8312-5.5226z" fill="#da121a" stroke="#192e2e"/><path d="m1085.1 1799c1.4643 2.1647 1.024 4.3294 0 6.4941 0 0-6.4903 5.8105 0.1708 7.7758 0 0-6.6611 3.2471-8.0275-6.5795 0 0-6.4903 9.9121-12.554 2.1362 0 0 5.7217-0.3418 6.0633-5.4688" fill="none" stroke="#121f1f"/><path d="m1025.2 1865.3s-1.3516-10.131 2.5767-10.473" fill="none" stroke="#121f1f"/><path d="m1024.1 1945.8s1.1101-1.3672 1.7934-1.3672" fill="#da121a" stroke="#000"/></g><g id="b" transform="matrix(.94391 0 0 .94391 59.511 89.632)"><path d="m1041.8 1521.3 31.268 0.1066 6.1685 5.5457v14.93l-3.4032 2.5594-0.1064 34.34h8.1893l0.319-17.703-2.2334-3.306-0.1064-10.771 4.3606-5.3323 18.293 0.1066 4.6795 5.439 0.1064 10.451-2.7652 4.3725-0.1064 21.649 11.912 6.2921-0.2127 16.21-3.8288 5.9721v64.414l10.104 8.6382 0.1063 20.796-20.314 13.437h-93.273l-20.314-13.331v-20.903l9.4656-7.5717 0.4254-65.267-3.6161-5.9356v-16.247l11.274-6.8254 0.1063-21.756-3.616-3.7327-0.2127-10.238 4.9986-5.8655h18.931l4.7859 5.3322v10.984l-2.8716 3.5194 0.1064 17.596 9.1465-0.1066-0.2126-34.127-3.6162-3.4126-0.319-13.864 6.3813-6.3988z" fill="#fcdd09" stroke="#000"/><path d="m1042.3 1718.9 0.2127-34.553s14.039-22.822 30.205 0.2132l0.4749 34.766" fill="none" stroke="#000"/><path d="m990.9 1685.4 20.101 8.2118 31.374 0.1066" fill="none" stroke="#000"/><path d="m1124 1685.5-20.072 8.0556-31.056 0.2132" fill="none" stroke="#000"/><path d="m990.79 1692.5 19.995 9.2963 31.292 0.019" fill="none" stroke="#000"/><path d="m990.63 1699.2 20.004 11.312 31.134 0.1508" fill="none" stroke="#000"/><path d="m1001 1689.6-0.3008 7.3901" fill="none" stroke="#000"/><path d="m995.89 1694.8-0.15042 7.3903" fill="none" stroke="#000"/><path d="m1005.8 1699.1v8.446" fill="none" stroke="#000"/><path d="m1001 1704.8-0.1504 7.8428" fill="none" stroke="#000"/><path d="m997.1 1606.8 18.35-7.2393 83.476-0.1508 19.102 6.7869" fill="none" stroke="#000"/><path d="m1000.7 1612.3 18.651-5.7312 76.708 0.1508 18.35 5.4295" fill="none" stroke="#000"/><path d="m1000.4 1622.9 18.65-3.9213 77.159 0.1508 18.049 3.9213" fill="none" stroke="#000"/><path d="m1000.6 1634.5 18.951-2.4132h75.805l18.951 2.2624" fill="none" stroke="#000"/><path d="m999.99 1644.2 19.322 1.5633 76.124 0.033 19.428-1.5967" fill="none" stroke="#000"/><path d="m1000.6 1655.3 18.825 3.0928 76.469 0.1066 18.506-2.7728" fill="none" stroke="#000"/><path d="m1000.4 1666.7 19.569 4.2658h75.512l18.931-4.6924" fill="none" stroke="#000"/><path d="m1000.4 1677.3 18.931 5.7588 23.717 0.053" fill="none" stroke="#000"/><path d="m1071.7 1682.9 23.8 0.088 19.494-6.7003" fill="none" stroke="#000"/><path d="m1008.8 1583 6.9662-4.2125" fill="none" stroke="#000"/><path d="m1005.2 1557.4 3.9351-3.7326 18.718-0.1066 5.2114 4.2658" fill="none" stroke="#000"/><path d="m1008.3 1568.6 4.1479-3.1993h13.188l4.7859 3.306" fill="none" stroke="#000"/><path d="m1008.6 1575.9 5.2113-4.0526 11.805 0.1067 5.2114 4.2658" fill="none" stroke="#000"/><path d="m1106 1583.2-6.7003-4.0526" fill="none" stroke="#000"/><path d="m1041.8 1521.6 0.2127 15.997 2.7651 4.2659v36.899" fill="none" stroke="#000"/><path d="m1073.1 1521.5-0.2127 15.997-2.7652 4.2658v36.899" fill="none" stroke="#000"/><path d="m1036 1541.6 5.6369-4.1592 31.162 0.32 6.2749 4.2658" fill="none" stroke="#000"/><path d="m1039.6 1544.9 4.786-2.7727 25.791 0.1599 5.5836 2.8262" fill="none" stroke="#000"/><path d="m1039.6 1554.6 4.8923-3.0927 25.419 0.32 5.7432 2.9861" fill="none" stroke="#000"/><path d="m1039.3 1563.4 5.424-2.8794 25.312 0.2133 5.6368 2.9861" fill="none" stroke="#000"/><path d="m1039.7 1572.8 4.3606-2.5594 26.163 0.2133 5.105 2.986" fill="none" stroke="#000"/><path d="m1106.2 1562-4.8923-3.3061h-12.656l-4.2542 3.7327" fill="none" stroke="#000"/><path d="m1106.3 1569.2-4.1478-3.1994h-13.188l-4.7859 3.3061" fill="none" stroke="#000"/><path d="m1106.1 1576.5-5.2114-4.0525-11.805 0.1067-4.8923 3.3059" fill="none" stroke="#000"/><path d="m1124.4 1691.8-20.42 10.025h-30.417" fill="none" stroke="#000"/><path d="m1073.3 1710.4h30.524l20.633-11.518" fill="none" stroke="#000"/><path d="m1114.4 1689.6 0.1064 6.8254" fill="none" stroke="#000"/><path d="m1109.5 1699.4 0.1063 7.7851" fill="none" stroke="#000"/><path d="m1119.4 1694.1 0.1063 7.4652" fill="none" stroke="#000"/><path d="m1114.3 1704.6 0.2393 7.8386" fill="none" stroke="#000"/><path d="m1088.2 1693.5-0.1064 8.1052" fill="none" stroke="#000"/><path d="m1080.7 1701.7v8.6384" fill="none" stroke="#000"/><path d="m1095.7 1701.7v8.6384" fill="none" stroke="#000"/><path d="m1088.1 1710.6 0.1064 8.8516" fill="none" stroke="#000"/><path d="m1025.7 1693.6v7.8918" fill="none" stroke="#000"/><path d="m1018.3 1701.6v8.8517" fill="none" stroke="#000"/><path d="m1034.5 1701.7 0.1063 8.9582" fill="none" stroke="#000"/><path d="m1025.9 1710.6v8.5315" fill="none" stroke="#000"/><path d="m1000.8 1689.3 8.5083-9.1715" fill="none" stroke="#000"/><path d="m1004.4 1678.4-0.1063-10.984" fill="none" stroke="#000"/><path d="m1014.2 1669.4v11.731" fill="none" stroke="#000"/><path d="m1009.7 1668.9v-12.477" fill="none" stroke="#000"/><path d="m1004.6 1656 0.2128-11.731" fill="none" stroke="#000"/><path d="m1014.5 1645.4-0.1064 11.838" fill="none" stroke="#000"/><path d="m1009.8 1633.1-0.1064 11.624" fill="none" stroke="#000"/><path d="m1004.9 1621.6-0.1063 12.371" fill="none" stroke="#000"/><path d="m1014.5 1620.2 0.1064 12.371" fill="none" stroke="#000"/><path d="m1009.5 1609.7v11.091" fill="none" stroke="#000"/><path d="m1110 1678.2-0.1063-11.091" fill="none" stroke="#000"/><path d="m1100.5 1669.2v11.731" fill="none" stroke="#000"/><path d="m1105.2 1668.6 0.013-11.768" fill="none" stroke="#000"/><path d="m1110 1656.3v-11.891" fill="none" stroke="#000"/><path d="m1100.4 1645.1-0.066 12.797" fill="none" stroke="#000"/><path d="m1105.2 1633 0.013 11.707" fill="none" stroke="#000"/><path d="m1109.8 1622.2 0.084 11.624" fill="none" stroke="#000"/><path d="m1100.2 1619.9-0.031 12.672" fill="none" stroke="#000"/><path d="m1105.2 1609.5v11.038" fill="none" stroke="#000"/><path d="m1025.5 1693.5 6.7683-10.407" fill="none" stroke="#000"/><path d="m1082.5 1682.9 5.866 10.708" fill="none" stroke="#000"/><path d="m1104.9 1679.6 9.175 9.8033" fill="none" stroke="#000"/><path d="m1038.3 1670.4 0.044 12.518" fill="none" stroke="#000"/><path d="m1057.5 1670.5 0.062 3.3622" fill="none" stroke="#000"/><path d="m1077.1 1670.6v12.216" fill="none" stroke="#000"/><path d="m1069.9 1658.3 0.1503 11.915" fill="none" stroke="#000"/><path d="m1044.8 1658-0.1505 12.518" fill="none" stroke="#000"/><path d="m1056.8 1645.2-0.1246 12.82" fill="none" stroke="#000"/><path d="m1032 1645.2v12.518" fill="none" stroke="#000"/><path d="m1070.3 1632.4-0.1246 12.82" fill="none" stroke="#000"/><path d="m1069.9 1606.6-0.018 12.216" fill="none" stroke="#000"/><path d="m1044.5 1606.2-0.018 12.82" fill="none" stroke="#000"/><path d="m1057.2 1619.3 0.044 12.305" fill="none" stroke="#000"/><path d="m1044.6 1632.2v12.82" fill="none" stroke="#000"/><path d="m1032.1 1645.4v12.82" fill="none" stroke="#000"/><path d="m1083.3 1645.5v13.122" fill="none" stroke="#000"/><path d="m1003.2 1586.3v7.9985" fill="none" stroke="#000"/><path d="m1009.5 1582.5v9.1716" fill="none" stroke="#000"/><path d="m1014.5 1541.7 0.053 4.9057" fill="none" stroke="#000"/><path d="m1019.3 1541.8v4.9056" fill="none" stroke="#000"/><path d="m1024.1 1541.9v4.6923" fill="none" stroke="#000"/><path d="m1090.6 1541.9v4.9056" fill="none" stroke="#000"/><path d="m1095.7 1542v4.9056" fill="none" stroke="#000"/><path d="m1100.6 1542.1v4.7925" fill="none" stroke="#000"/><path d="m1010.8 1719.1 0.4254-25.382 8.5083-10.878-0.4254-76.358-3.4033-6.6121-0.013-21.217 10.857-0.022-0.031 10.361 3.9153 0.075-0.084-10.351 10.252 0.062 0.044 10.373h3.7757l-0.1064-10.348 11.167 0.053v10.348h3.7756l0.053-10.433 10.359-0.01-0.044 10.439h3.7766l-0.047-10.524 11.001 0.1224 0.053 10.348 3.6426-0.053-0.088-10.393 11.282 0.076-0.053 20.129-3.616 7.6785-0.1063 76.305 8.0829 10.451 0.319 25.968" fill="none" stroke="#000"/><path d="m1009.6 1541.6v12.158l3.616 4.4792 0.1064 21.329" fill="none" stroke="#000"/><path d="m1028.3 1541.5 0.1063 12.371-2.4461 4.5859-0.2128 20.689" fill="none" stroke="#000"/><path d="m1008.4 1561.4 4.8923-3.3061h12.656l4.2542 3.7326" fill="none" stroke="#000"/><path d="m1105.1 1542.1v12.158l-3.6162 4.4792-0.1062 21.329" fill="none" stroke="#000"/><path d="m1086.3 1542-0.1064 12.371 2.4461 4.5858 0.2128 20.689" fill="none" stroke="#000"/><path d="m1082.3 1557.6 3.616-3.1993 18.718-0.1066 4.7859 3.6259" fill="none" stroke="#000"/><path d="m1049.6 1521.5-0.069 6.6121" fill="none" stroke="#000"/><path d="m1056.9 1521.4-0.044 6.5927" fill="none" stroke="#000"/><path d="m1065.1 1521.6v6.75" fill="none" stroke="#000"/><path d="m1105.7 1583.1 0.1064 8.9584" fill="none" stroke="#000"/><path d="m1112.1 1586.6-0.1063 7.9985" fill="none" stroke="#000"/><path d="m1054.2 1570.6-0.097-15.195s2.6741-6.9273 6.2653 0l0.024 15.206-6.1922-0.011z" fill="#0f47af" stroke="#000"/><path d="m1032.9 1645.6-0.1334-21.842s3.669-9.9574 8.5961 0l0.033 21.858-8.4958-0.016z" fill="#0f47af" stroke="#000"/><path d="m1073.8 1645.5-0.1318-21.842s3.6237-9.9573 8.4902 0l0.033 21.858-8.3911-0.016z" fill="#0f47af" stroke="#000"/><path d="m1048.1 1686.8s3.3227-7.1709 9.7204-7.3273c0 0 5.4157-0.1833 9.1607 7.0143v32.78l-19.037-0.078 0.156-32.389z" fill="#0f47af" stroke="#000"/></g><use transform="translate(325,-250)" xlink:href="#a"/><use transform="translate(325,250)" xlink:href="#b"/></g></svg>